<svg xmlns="http://www.w3.org/2000/svg" width="896" height="232.691" viewBox="0 0 896 232.691"><defs><style>.a{fill:#1794ad;opacity:0.06;}</style></defs><path class="a" d="M933.535,237.192H906.154l4.379-21.307a9.577,9.577,0,0,1,3.244-5.233,9.481,9.481,0,0,1,5.733-2.187h14.024v28.726Zm-34.936,0H853.883l4.379-21.307a9.6,9.6,0,0,1,8.978-7.42h29.807c.1,0,.2-.007.291-.007a5.857,5.857,0,0,1,5.838,5.6,5.929,5.929,0,0,1-.2,1.831l-4.38,21.307Zm-52.27,0H801.613l4.379-21.307a9.6,9.6,0,0,1,8.978-7.42h29.807c.1,0,.2-.007.291-.007a5.858,5.858,0,0,1,5.838,5.6,5.925,5.925,0,0,1-.2,1.831l-4.38,21.307Zm-52.259,0H749.354l4.38-21.307a9.6,9.6,0,0,1,8.977-7.42H792.52c.1,0,.2-.007.291-.007a5.887,5.887,0,0,1,5.64,7.427l-4.38,21.307Zm-52.271,0H697.084l4.379-21.307a9.6,9.6,0,0,1,8.977-7.42h29.808c.1,0,.2-.007.291-.007a5.888,5.888,0,0,1,5.64,7.427L741.8,237.191Zm-52.27,0H644.814l4.379-21.307a9.6,9.6,0,0,1,8.977-7.42h29.809c.1,0,.2-.007.291-.007a5.887,5.887,0,0,1,5.64,7.427l-4.38,21.307Zm-52.26,0H592.554l4.379-21.307a9.6,9.6,0,0,1,8.977-7.42h29.809c.1,0,.2-.007.291-.007a5.858,5.858,0,0,1,5.838,5.6,5.929,5.929,0,0,1-.2,1.831l-4.38,21.307Zm-52.271,0H540.284l4.379-21.307a9.6,9.6,0,0,1,8.978-7.42h29.807c.1,0,.2-.007.291-.007a5.858,5.858,0,0,1,5.838,5.6,5.925,5.925,0,0,1-.2,1.831L585,237.191Zm-52.27,0H488.014l4.379-21.307a9.6,9.6,0,0,1,8.977-7.42h29.809c.1,0,.2-.007.291-.007a5.858,5.858,0,0,1,5.838,5.6,5.927,5.927,0,0,1-.2,1.831l-4.38,21.307Zm-52.259,0H435.754l4.379-21.307a9.6,9.6,0,0,1,8.978-7.42h29.808c.1,0,.2-.007.291-.007a5.857,5.857,0,0,1,5.838,5.6,5.918,5.918,0,0,1-.2,1.831l-4.38,21.307Zm-52.271,0H383.484l4.379-21.307a9.6,9.6,0,0,1,8.977-7.42h29.809c.1,0,.2-.007.291-.007a5.887,5.887,0,0,1,5.64,7.427l-4.38,21.307Zm-52.271,0H331.215l4.379-21.307a9.6,9.6,0,0,1,8.977-7.42h29.808c.1,0,.2-.007.291-.007a5.858,5.858,0,0,1,5.838,5.6,5.919,5.919,0,0,1-.2,1.831l-4.381,21.307Zm-52.259,0H278.955l4.379-21.307a9.6,9.6,0,0,1,8.977-7.42H322.12c.1,0,.2-.007.291-.007a5.858,5.858,0,0,1,5.838,5.6,5.923,5.923,0,0,1-.2,1.831l-4.38,21.307Zm-52.271,0H226.684l4.379-21.307a9.6,9.6,0,0,1,8.977-7.42h29.809c.1,0,.2-.007.291-.007a5.858,5.858,0,0,1,5.838,5.6,5.926,5.926,0,0,1-.2,1.831l-4.38,21.307Zm-52.27,0H174.414l4.379-21.307a9.6,9.6,0,0,1,8.977-7.42h29.809c.1,0,.2-.007.291-.007a5.858,5.858,0,0,1,5.838,5.6,5.927,5.927,0,0,1-.2,1.831l-4.38,21.307Zm-52.259,0H122.155l4.379-21.307a9.6,9.6,0,0,1,8.978-7.42H165.32c.1,0,.2-.007.291-.007a5.858,5.858,0,0,1,5.838,5.6,5.92,5.92,0,0,1-.2,1.831l-4.381,21.307Zm-52.27,0H69.884l4.379-21.307a9.6,9.6,0,0,1,8.978-7.42H113.05c.1,0,.2-.007.291-.007a5.887,5.887,0,0,1,5.64,7.427l-4.38,21.307Zm-52.271,0H37.536V208.465H60.779c.1,0,.2-.007.291-.007a5.858,5.858,0,0,1,5.838,5.6,5.953,5.953,0,0,1-.2,1.831L62.33,237.191ZM920.12,202.245a5.887,5.887,0,0,1-5.64-7.426l6.092-29.643a9.6,9.6,0,0,1,8.977-7.42h3.985v44.481H920.41C920.316,202.243,920.221,202.245,920.12,202.245Zm-52.271,0a5.858,5.858,0,0,1-5.837-5.6,5.933,5.933,0,0,1,.2-1.829l6.092-29.643a9.6,9.6,0,0,1,8.978-7.42h29.808c.1,0,.2-.007.291-.007a5.885,5.885,0,0,1,5.639,7.427l-6.094,29.643a9.57,9.57,0,0,1-3.243,5.233,9.475,9.475,0,0,1-5.732,2.186H868.139C868.045,202.243,867.951,202.245,867.849,202.245Zm-52.27,0a5.886,5.886,0,0,1-5.64-7.426l6.092-29.643a9.6,9.6,0,0,1,8.978-7.42h29.808c.1,0,.2-.007.291-.007a5.858,5.858,0,0,1,5.838,5.6,5.953,5.953,0,0,1-.2,1.831l-6.1,29.643a9.571,9.571,0,0,1-3.243,5.233,9.474,9.474,0,0,1-5.732,2.186H815.869C815.776,202.243,815.681,202.245,815.58,202.245Zm-52.26,0a5.887,5.887,0,0,1-5.639-7.426l6.092-29.643a9.6,9.6,0,0,1,8.977-7.42h29.809c.1,0,.2-.007.291-.007a5.888,5.888,0,0,1,5.64,7.427L802.4,194.819a9.576,9.576,0,0,1-3.244,5.233,9.473,9.473,0,0,1-5.732,2.186H763.609C763.516,202.243,763.421,202.245,763.32,202.245Zm-52.27,0a5.887,5.887,0,0,1-5.64-7.426l6.092-29.643a9.6,9.6,0,0,1,8.977-7.42h29.809c.1,0,.2-.007.291-.007a5.858,5.858,0,0,1,5.838,5.6,5.925,5.925,0,0,1-.2,1.831l-6.094,29.643a9.575,9.575,0,0,1-3.244,5.233,9.473,9.473,0,0,1-5.732,2.186H711.339C711.246,202.243,711.151,202.245,711.05,202.245Zm-52.27,0a5.884,5.884,0,0,1-5.64-7.426l6.092-29.643a9.6,9.6,0,0,1,8.977-7.42h29.809c.1,0,.2-.007.291-.007a5.887,5.887,0,0,1,5.64,7.427l-6.094,29.643a9.575,9.575,0,0,1-3.244,5.233,9.473,9.473,0,0,1-5.732,2.186H659.07C658.976,202.243,658.882,202.245,658.78,202.245Zm-365.859,0a5.887,5.887,0,0,1-5.64-7.426l6.092-29.643a9.6,9.6,0,0,1,8.977-7.42h29.809c.1,0,.2-.007.291-.007a5.858,5.858,0,0,1,5.838,5.6,5.926,5.926,0,0,1-.2,1.831L332,194.819a9.576,9.576,0,0,1-3.244,5.233,9.473,9.473,0,0,1-5.732,2.186H293.21C293.117,202.243,293.022,202.245,292.921,202.245Zm-52.271,0a5.858,5.858,0,0,1-5.837-5.6,5.94,5.94,0,0,1,.2-1.829l6.092-29.643a9.6,9.6,0,0,1,8.978-7.42h29.808c.1,0,.2-.007.291-.007a5.858,5.858,0,0,1,5.838,5.6,5.927,5.927,0,0,1-.2,1.831l-6.094,29.643a9.575,9.575,0,0,1-3.243,5.233,9.473,9.473,0,0,1-5.732,2.186H240.94C240.846,202.243,240.752,202.245,240.65,202.245Zm-52.27,0a5.887,5.887,0,0,1-5.64-7.426l6.092-29.643a9.6,9.6,0,0,1,8.977-7.42h29.809c.1,0,.2-.007.291-.007a5.858,5.858,0,0,1,5.838,5.6,5.927,5.927,0,0,1-.2,1.831l-6.094,29.643a9.575,9.575,0,0,1-3.244,5.233,9.473,9.473,0,0,1-5.732,2.186H188.67C188.576,202.243,188.482,202.245,188.381,202.245Zm-52.26,0a5.858,5.858,0,0,1-5.837-5.6,5.939,5.939,0,0,1,.2-1.829l6.092-29.643a9.6,9.6,0,0,1,8.978-7.42h29.808c.1,0,.2-.007.291-.007a5.857,5.857,0,0,1,5.838,5.6,5.92,5.92,0,0,1-.2,1.831L175.2,194.819a9.575,9.575,0,0,1-3.244,5.233,9.473,9.473,0,0,1-5.732,2.186H136.41C136.317,202.243,136.222,202.245,136.121,202.245Zm-52.271,0a5.884,5.884,0,0,1-5.639-7.426L84.3,165.177a9.6,9.6,0,0,1,8.977-7.42h29.809c.1,0,.2-.007.291-.007a5.887,5.887,0,0,1,5.64,7.427l-6.094,29.643a9.575,9.575,0,0,1-3.244,5.233,9.473,9.473,0,0,1-5.732,2.186H84.139C84.046,202.243,83.951,202.245,83.85,202.245Zm-22.17-.007H37.535V158.552a9.5,9.5,0,0,1,3.476-.8H70.819c.1,0,.2-.007.291-.007a5.858,5.858,0,0,1,5.838,5.6,5.919,5.919,0,0,1-.2,1.831l-6.1,29.643a9.571,9.571,0,0,1-3.243,5.233A9.474,9.474,0,0,1,61.68,202.238Zm869.64-50.7a5.887,5.887,0,0,1-5.639-7.426l6.092-29.643a9.593,9.593,0,0,1,1.761-3.7v40.763H931.61C931.517,151.535,931.422,151.537,931.32,151.537Zm-52.271,0a5.856,5.856,0,0,1-5.836-5.6,5.916,5.916,0,0,1,.2-1.829l6.092-29.643a9.6,9.6,0,0,1,8.978-7.42h29.807c.1,0,.2-.007.291-.007a5.858,5.858,0,0,1,5.838,5.6,5.927,5.927,0,0,1-.2,1.832l-6.094,29.643a9.573,9.573,0,0,1-3.243,5.233,9.473,9.473,0,0,1-5.732,2.186H879.34C879.247,151.535,879.152,151.537,879.049,151.537Zm-52.27,0a5.887,5.887,0,0,1-5.639-7.426l6.092-29.643a9.6,9.6,0,0,1,8.977-7.42h29.809c.1,0,.2-.007.291-.007a5.858,5.858,0,0,1,5.838,5.6,5.928,5.928,0,0,1-.2,1.832l-6.094,29.643a9.576,9.576,0,0,1-3.244,5.233,9.473,9.473,0,0,1-5.732,2.186H827.07C826.977,151.535,826.882,151.537,826.779,151.537Zm-52.26,0a5.858,5.858,0,0,1-5.836-5.6,5.947,5.947,0,0,1,.2-1.829l6.092-29.643a9.6,9.6,0,0,1,8.978-7.42h29.808c.1,0,.2-.007.291-.007a5.857,5.857,0,0,1,5.838,5.6,5.922,5.922,0,0,1-.2,1.832L813.6,144.112a9.575,9.575,0,0,1-3.244,5.233,9.473,9.473,0,0,1-5.732,2.186H774.81C774.717,151.535,774.622,151.537,774.52,151.537Zm-52.271,0a5.858,5.858,0,0,1-5.836-5.6,5.918,5.918,0,0,1,.2-1.829l6.092-29.643a9.6,9.6,0,0,1,8.977-7.42h29.809c.1,0,.2-.007.291-.007a5.887,5.887,0,0,1,5.64,7.427l-6.094,29.643a9.575,9.575,0,0,1-3.244,5.233,9.473,9.473,0,0,1-5.732,2.186H722.539C722.446,151.535,722.351,151.537,722.249,151.537Zm-522.669,0a5.858,5.858,0,0,1-5.837-5.6,5.918,5.918,0,0,1,.2-1.829l6.092-29.643a9.6,9.6,0,0,1,8.977-7.42H238.82c.1,0,.2-.007.291-.007a5.888,5.888,0,0,1,5.64,7.427l-6.094,29.643a9.575,9.575,0,0,1-3.244,5.233,9.473,9.473,0,0,1-5.732,2.186H199.871C199.778,151.535,199.683,151.537,199.58,151.537Zm-52.26,0a5.887,5.887,0,0,1-5.639-7.426l6.092-29.643a9.6,9.6,0,0,1,8.977-7.42H186.56c.1,0,.2-.007.291-.007a5.885,5.885,0,0,1,5.64,7.427L186.4,144.112a9.575,9.575,0,0,1-3.244,5.233,9.473,9.473,0,0,1-5.732,2.186H147.611C147.518,151.535,147.423,151.537,147.321,151.537Zm-52.271,0a5.858,5.858,0,0,1-5.836-5.6,5.942,5.942,0,0,1,.2-1.829L95.5,114.469a9.6,9.6,0,0,1,8.978-7.42H134.29c.1,0,.2-.007.291-.007a5.888,5.888,0,0,1,5.64,7.427l-6.1,29.643a9.6,9.6,0,0,1-8.975,7.419H95.34C95.247,151.535,95.152,151.537,95.05,151.537Zm-52.27,0a5.8,5.8,0,0,1-3.12-.91,5.882,5.882,0,0,1-2.125-2.379V142.2l5.7-27.727a9.6,9.6,0,0,1,8.978-7.42H82.02c.1,0,.2-.007.291-.007a5.858,5.858,0,0,1,5.838,5.6,5.954,5.954,0,0,1-.2,1.832l-6.1,29.643a9.571,9.571,0,0,1-3.243,5.233,9.474,9.474,0,0,1-5.732,2.186H43.07C42.977,151.535,42.883,151.537,42.78,151.537Zm847.1-50.708a5.887,5.887,0,0,1-5.641-7.426l6.092-29.642a9.6,9.6,0,0,1,8.977-7.42H929.12c.1,0,.2-.007.291-.007a5.792,5.792,0,0,1,4.124,1.716V71.136L928.956,93.4a9.574,9.574,0,0,1-3.243,5.233,9.473,9.473,0,0,1-5.732,2.186H890.171C890.081,100.828,889.986,100.83,889.882,100.83Zm-836.27,0a5.858,5.858,0,0,1-5.838-5.6,5.945,5.945,0,0,1,.2-1.829l6.092-29.642a9.6,9.6,0,0,1,8.978-7.42H92.849c.1,0,.2-.007.291-.007a5.858,5.858,0,0,1,5.838,5.6,5.927,5.927,0,0,1-.2,1.832L92.686,93.4a9.57,9.57,0,0,1-3.243,5.233,9.475,9.475,0,0,1-5.732,2.186H53.9C53.811,100.828,53.716,100.83,53.612,100.83ZM37.535,98.323V56.342H40.58c.1,0,.2-.007.291-.007a5.858,5.858,0,0,1,5.838,5.6,5.927,5.927,0,0,1-.2,1.832L40.416,93.4a9.609,9.609,0,0,1-2.88,4.916ZM899.209,51.249a5.887,5.887,0,0,1-5.639-7.426l6.092-29.643a9.6,9.6,0,0,1,8.977-7.42h24.895V50.078a9.577,9.577,0,0,1-4.225,1.164H899.5C899.407,51.247,899.312,51.249,899.209,51.249Zm-854.7-1.134H37.535V5.635H53.649c.1,0,.2-.007.291-.007a5.858,5.858,0,0,1,5.838,5.6,5.926,5.926,0,0,1-.2,1.832L53.486,42.7a9.575,9.575,0,0,1-3.244,5.233A9.473,9.473,0,0,1,44.511,50.115ZM67.052,49a5.857,5.857,0,0,1-5.838-5.6,5.935,5.935,0,0,1,.2-1.828L67.5,11.927a9.6,9.6,0,0,1,8.978-7.419h29.808c.1,0,.2-.007.291-.007a5.884,5.884,0,0,1,5.64,7.426L106.126,41.57a9.575,9.575,0,0,1-3.243,5.233,9.472,9.472,0,0,1-5.732,2.186H67.34C67.248,48.993,67.154,49,67.052,49Z" transform="translate(-37.535 -4.501)"/></svg>