<svg xmlns="http://www.w3.org/2000/svg" width="221.922" height="219.197" viewBox="0 0 221.922 219.197"><defs><style>.a,.f,.l{fill:#1d1d1b;}.a{opacity:0.06;}.b{fill:#2e364d;}.c,.r,.s{fill:#231f20;}.c,.o,.r,.x{opacity:0.17;}.c,.s{mix-blend-mode:overlay;isolation:isolate;}.d{fill:#f6f6f6;}.e{fill:none;stroke:#ededed;stroke-miterlimit:10;stroke-width:0.262px;}.f{opacity:0.1;}.g{fill:#706f6f;}.h{fill:#333;}.i{fill:#ededed;}.j{fill:#dadada;}.k{fill:#c6c6c6;}.ac,.m,.o{fill:#fff;}.n{fill:#486fb5;}.p{fill:#ffbe92;}.q{fill:#15c39a;}.s{opacity:0.08;}.t{fill:#ffb380;}.u{fill:#3f2e18;}.v{fill:#332517;}.w{fill:#5b4227;}.x{fill:#383838;}.y{fill:#ff6584;}.z{fill:#e24a69;}.aa{fill:#432918;}.ab{fill:#b17f4a;}.ac{opacity:0.2;}</style></defs><g transform="translate(-122.057 -275.736) rotate(31)"><path class="a" d="M347.832,94.943a7.136,7.136,0,0,0-4.1,1.1c-3.663,2.289-5.295,6.036-6.6,9.816,0,.014-.012.021-.015.035-3.149,10.12,5.27,42.634,14.552,76.194-.156,1.546-.268,3.132-.315,4.738q-.025.847-.026,1.7c0,.4.009.8.018,1.195-8.351,29.626-14.716,52.461-14.69,70-.031.61-.027,1.209,0,1.827,0,.022,0,.041.005.063.286,5.711,4.05,14.207,11.1,14.345,5.6.11,12.22-6.4,16.094-9.753,1.533-1.324,16.682-15.491,15.9-16.316,6.8,7.194,16.459,18.482,27.227,11.367,16.309-10.775,20.144-35.82,22.715-53.042,1.743-11.674,1.085-23.729,1.267-35.483.178-11.573-3.211-23.242-7.907-33.807-3.238-7.285-6.873-14.611-12.186-20.739-3.56-4.106-11.379-12.4-17.7-9.437-2.033.952-14.783,12.917-13.516,14.547a155.107,155.107,0,0,0-17.437-19.4C358.8,100.759,353.214,95.117,347.832,94.943Z" transform="translate(38.87 19.139)"/><g transform="translate(295.662 118.25)"><path class="b" d="M327.912,251.647c-.747-19.43,10.814-45.967,24.73-81.982,5.853,1.237,17.618,1.841,18.91,2.521C385.22,199.4,328.543,268.069,327.912,251.647Z" transform="translate(-284.968 -93.445)"/><path class="c" d="M334.657,235.393A397.409,397.409,0,0,0,359.1,172.1c5.853,1.237,19.819,22.587,21.111,23.266C382.4,196.931,328.153,248.295,334.657,235.393Z" transform="translate(-282.898 -92.636)"/><path class="b" d="M329.536,242.467s36.578-40.607,59.109-67.5a74.346,74.346,0,0,1,13.093,3.961c2.188,1.562.336,35.692,3.111,39.239-9.078,12.647-38.292,38.345-59.5,45.11C337.194,265.876,323.03,255.369,329.536,242.467Z" transform="translate(-284.969 -91.685)"/><path class="c" d="M403.062,207.4c-9.078,12.647-38.292,38.345-59.5,45.11-3.055.975-6.958.107-10.3-2.041C357.151,243.754,345.428,250.022,403.062,207.4Z" transform="translate(-283.182 -80.919)"/><path class="b" d="M352.7,205.686c5.853-1.236,24.985-15.311,26.277-15.99,2.188-1.564-47.32-76.318-50.4-69.178C323.878,131.413,338.786,169.672,352.7,205.686Z" transform="translate(-285.029 -109.918)"/><path class="c" d="M350.116,201.8c5.853-1.236,24.985-15.311,26.277-15.99,2.188-1.564-41.955-61.095-40.888-53.395C336.806,141.821,351.656,164.179,350.116,201.8Z" transform="translate(-282.443 -106.036)"/><path class="b" d="M329.536,133.647s36.578,40.607,59.109,67.5a74.346,74.346,0,0,0,13.093-3.961c2.188-1.562,2.38-29.923,5.156-33.47-9.078-12.647-40.336-44.114-61.549-50.879C337.194,110.238,323.03,120.746,329.536,133.647Z" transform="translate(-284.969 -112.44)"/><path class="c" d="M405.5,163.717c-9.078-12.647-40.336-44.114-61.549-50.879-3.554-1.133-8.251.225-11.88,3.187C340.608,115.32,362.021,120.083,405.5,163.717Z" transform="translate(-283.576 -112.44)"/><g transform="translate(0 34.602)"><path class="d" d="M382.529,230.651a2.276,2.276,0,0,1-2.275,2.276l-47.418-.016a2.493,2.493,0,0,1-2.491-2.493V145.577a2.491,2.491,0,0,1,2.491-2.492l47.418.016a2.277,2.277,0,0,1,2.275,2.278Z" transform="translate(-284.149 -136.87)"/><path class="e" d="M381.492,230.444a1.446,1.446,0,0,1-1.445,1.445l-47.418-.016a1.664,1.664,0,0,1-1.661-1.662V145.37a1.663,1.663,0,0,1,1.661-1.661l47.418.016a1.448,1.448,0,0,1,1.445,1.447Z" transform="translate(-283.943 -136.663)"/><path class="f" d="M330.757,143.926a2.483,2.483,0,0,0-.412,1.372v84.841a2.486,2.486,0,0,0,.412,1.372,2.86,2.86,0,0,0,1.249-2.291v-83A2.86,2.86,0,0,0,330.757,143.926Z" transform="translate(-284.149 -136.591)"/><path class="g" d="M333,154.948v60.376a.83.83,0,0,1-.831.831h-1.826V154.117h1.826A.831.831,0,0,1,333,154.948Z" transform="translate(-284.149 -133.208)"/><g transform="translate(51.114 11.714)"><path class="h" d="M.43,0H4.16a.431.431,0,0,1,.431.431V4.39a.43.43,0,0,1-.43.43H.431A.431.431,0,0,1,0,4.39V.43A.43.43,0,0,1,.43,0Z" transform="translate(3.508 36.29)"/><rect class="h" width="4.591" height="4.82" rx="0.43" transform="translate(3.508 47.217)"/><path class="h" d="M.43,0h3.73a.431.431,0,0,1,.431.431V4.39a.43.43,0,0,1-.43.43H.431A.431.431,0,0,1,0,4.39V.43A.43.43,0,0,1,.43,0Z" transform="translate(3.508 41.753)"/><path class="h" d="M.43,0H4.161a.43.43,0,0,1,.43.43V4.39a.43.43,0,0,1-.43.43H.431A.431.431,0,0,1,0,4.389V.43A.43.43,0,0,1,.43,0Z" transform="translate(3.508 58.144)"/><rect class="h" width="4.591" height="4.82" rx="0.43" transform="translate(3.508 52.68)"/><path class="h" d="M.43,0h3.73a.43.43,0,0,1,.43.43V4.39a.43.43,0,0,1-.43.43H.431A.431.431,0,0,1,0,4.39V.43A.43.43,0,0,1,.43,0Z" transform="translate(3.508 30.827)"/><rect class="h" width="4.591" height="4.82" rx="0.43" transform="translate(3.508 19.9)"/><rect class="h" width="4.591" height="4.82" rx="0.43" transform="translate(3.508 14.437)"/><path class="h" d="M.43,0H4.16a.431.431,0,0,1,.431.431V4.39a.43.43,0,0,1-.43.43H.43A.43.43,0,0,1,0,4.39V.43A.43.43,0,0,1,.43,0Z" transform="translate(3.508 25.363)"/><path class="h" d="M.43,0H4.16a.431.431,0,0,1,.431.431V4.39a.43.43,0,0,1-.43.43H.43A.43.43,0,0,1,0,4.39V.43A.43.43,0,0,1,.43,0Z" transform="translate(19.21 35.157)"/><path class="h" d="M.43,0H4.16a.431.431,0,0,1,.431.431V4.39a.43.43,0,0,1-.43.43H.431A.431.431,0,0,1,0,4.39V.43A.43.43,0,0,1,.43,0Z" transform="translate(19.21 46.084)"/><path class="h" d="M.43,0H4.16a.431.431,0,0,1,.431.431V4.39a.43.43,0,0,1-.43.43H.431A.431.431,0,0,1,0,4.39V.43A.43.43,0,0,1,.43,0Z" transform="translate(19.21 40.62)"/><rect class="h" width="4.591" height="4.821" rx="0.43" transform="translate(19.21 51.547)"/><path class="h" d="M.43,0H4.16a.431.431,0,0,1,.431.431V4.39a.43.43,0,0,1-.43.43H.43A.43.43,0,0,1,0,4.39V.43A.43.43,0,0,1,.43,0Z" transform="translate(19.21 29.694)"/><path class="h" d="M.43,0H4.161a.43.43,0,0,1,.43.43V4.39a.43.43,0,0,1-.43.43H.431A.431.431,0,0,1,0,4.39V.43A.43.43,0,0,1,.43,0Z" transform="translate(8.742 12.731)"/><path class="h" d="M.431,0h3.73a.43.43,0,0,1,.43.43V4.39a.43.43,0,0,1-.43.43H.43A.43.43,0,0,1,0,4.39V.431A.431.431,0,0,1,.431,0Z" transform="translate(13.976 64.521)"/><path class="h" d="M.43,0H4.161a.43.43,0,0,1,.43.43V4.39a.43.43,0,0,1-.43.43H.431A.431.431,0,0,1,0,4.39V.43A.43.43,0,0,1,.43,0Z" transform="translate(3.508 63.607)"/><path class="h" d="M.43,0h3.73a.43.43,0,0,1,.43.43V4.39a.43.43,0,0,1-.43.43H.431A.431.431,0,0,1,0,4.39V.43A.43.43,0,0,1,.43,0Z" transform="translate(8.742 67.365)"/><path class="h" d="M.431,0h3.73a.43.43,0,0,1,.43.43V4.39a.431.431,0,0,1-.431.431H.43A.43.43,0,0,1,0,4.39V.431A.431.431,0,0,1,.431,0Z" transform="translate(19.21 62.474)"/><path class="h" d="M.43,0H4.16a.431.431,0,0,1,.431.431V4.39a.43.43,0,0,1-.43.43H.431A.431.431,0,0,1,0,4.39V.43A.43.43,0,0,1,.43,0Z" transform="translate(19.21 57.011)"/><rect class="h" width="4.591" height="4.82" rx="0.43" transform="translate(13.976 59.058)"/><rect class="h" width="4.591" height="4.82" rx="0.43" transform="translate(8.742 40.048)"/><rect class="h" width="4.591" height="4.821" rx="0.43" transform="translate(8.742 34.584)"/><rect class="h" width="4.591" height="4.821" rx="0.43" transform="translate(8.742 45.511)"/><path class="h" d="M.43,0H4.161a.43.43,0,0,1,.43.43V4.39a.43.43,0,0,1-.43.43H.431A.431.431,0,0,1,0,4.39V.43A.43.43,0,0,1,.43,0Z" transform="translate(8.742 29.121)"/><path class="h" d="M.43,0H4.161a.431.431,0,0,1,.431.431V4.39a.43.43,0,0,1-.43.43H.43A.43.43,0,0,1,0,4.39V.43A.43.43,0,0,1,.43,0Z" transform="translate(8.742 50.975)"/><path class="h" d="M.43,0H4.161a.43.43,0,0,1,.43.43V4.39a.43.43,0,0,1-.43.43H.431A.431.431,0,0,1,0,4.39V.43A.43.43,0,0,1,.43,0Z" transform="translate(8.742 18.194)"/><rect class="h" width="4.591" height="4.821" rx="0.43" transform="translate(8.742 56.438)"/><path class="h" d="M.43,0h2a.431.431,0,0,1,.431.431V3.545a.43.43,0,0,1-.43.43h-2A.43.43,0,0,1,0,3.545V.43A.43.43,0,0,1,.43,0Z" transform="translate(0 4.887)"/><path class="h" d="M.43,0h2a.43.43,0,0,1,.43.43V3.545a.43.43,0,0,1-.43.43h-2A.431.431,0,0,1,0,3.545V.43A.43.43,0,0,1,.43,0Z" transform="translate(0 9.531)"/><rect class="h" width="4.591" height="4.82" rx="0.43" transform="translate(8.742 23.658)"/><path class="h" d="M.43,0h3.73a.43.43,0,0,1,.43.43V4.39a.43.43,0,0,1-.43.43H.431A.431.431,0,0,1,0,4.39V.43A.43.43,0,0,1,.43,0Z" transform="translate(13.976 53.594)"/><path class="h" d="M.43,0h3.73a.43.43,0,0,1,.43.43V4.39a.43.43,0,0,1-.43.43H.431A.431.431,0,0,1,0,4.39V.43A.43.43,0,0,1,.43,0Z" transform="translate(13.976 26.278)"/><path class="h" d="M.43,0h3.73a.43.43,0,0,1,.43.43V4.39a.43.43,0,0,1-.43.43H.431A.431.431,0,0,1,0,4.39V.43A.43.43,0,0,1,.43,0Z" transform="translate(13.976 31.741)"/><rect class="h" width="4.591" height="4.82" rx="0.43" transform="translate(13.976 20.814)"/><path class="h" d="M.43,0h3.73a.43.43,0,0,1,.43.43V4.39a.43.43,0,0,1-.43.43H.431A.431.431,0,0,1,0,4.39V.43A.43.43,0,0,1,.43,0Z" transform="translate(13.976 37.204)"/><rect class="h" width="4.591" height="4.82" rx="0.43" transform="translate(13.976 15.351)"/><path class="h" d="M.43,0h3.73a.43.43,0,0,1,.43.43V4.39a.43.43,0,0,1-.43.43H.431A.431.431,0,0,1,0,4.39V.43A.43.43,0,0,1,.43,0Z" transform="translate(13.976 42.668)"/><path class="h" d="M.43,0H4.161a.431.431,0,0,1,.431.431V4.39a.43.43,0,0,1-.43.43H.43A.43.43,0,0,1,0,4.39V.43A.43.43,0,0,1,.43,0Z" transform="translate(8.742 61.901)"/><rect class="h" width="4.591" height="4.82" rx="0.43" transform="translate(19.21 24.231)"/><path class="h" d="M.43,0h3.73a.431.431,0,0,1,.431.431V4.39a.43.43,0,0,1-.43.43H.431A.431.431,0,0,1,0,4.39V.43A.43.43,0,0,1,.43,0Z" transform="translate(13.976 48.131)"/><rect class="h" width="2.295" height="5.959" rx="0.43" transform="translate(27.075 12.509)"/><path class="h" d="M.43,0H4.16a.431.431,0,0,1,.431.431V4.39a.43.43,0,0,1-.43.43H.43A.43.43,0,0,1,0,4.39V.43A.43.43,0,0,1,.43,0Z" transform="translate(19.21 18.767)"/><rect class="h" width="4.927" height="26.674" rx="0.43" transform="translate(24.444 30.037)"/><path class="h" d="M.43,0H4.5a.431.431,0,0,1,.431.431V4.39a.43.43,0,0,1-.43.43H.431A.431.431,0,0,1,0,4.39V.43A.43.43,0,0,1,.43,0Z" transform="translate(24.444 24.573)"/><path class="h" d="M.43,0H4.5a.43.43,0,0,1,.43.43V4.39a.43.43,0,0,1-.43.43H.431A.431.431,0,0,1,0,4.39V.43A.43.43,0,0,1,.43,0Z" transform="translate(24.444 19.11)"/><path class="h" d="M.43,0H1.865A.43.43,0,0,1,2.3.43v5.1a.43.43,0,0,1-.43.43H.431A.431.431,0,0,1,0,5.528V.43A.43.43,0,0,1,.43,0Z" transform="translate(27.075 5.908)"/><path class="h" d="M.43,0H1.558a.431.431,0,0,1,.431.431v5.1a.43.43,0,0,1-.43.43H.43A.43.43,0,0,1,0,5.528V.43A.43.43,0,0,1,.43,0Z" transform="translate(24.444 5.907)"/><path class="h" d="M.43,0H4.5a.431.431,0,0,1,.431.431V4.39a.43.43,0,0,1-.43.43H.43A.43.43,0,0,1,0,4.39V.43A.43.43,0,0,1,.43,0Z" transform="translate(24.444 62.817)"/><path class="h" d="M353.051,209.121V198.794a.574.574,0,0,0-.574-.574h-3.444a.573.573,0,0,0-.573.574v9.753a.573.573,0,0,0,.573.574Z" transform="translate(-329.25 -130.283)"/><path class="h" d="M349.121,208.608v-8.277a.574.574,0,0,0-.573-.574H345.1a.574.574,0,0,0-.573.574v7.7a.573.573,0,0,0,.573.573l4.018,0Z" transform="translate(-330.554 -129.773)"/><path class="h" d="M.43,0H4.5a.43.43,0,0,1,.43.43V4.39A.431.431,0,0,1,4.5,4.82H.43A.43.43,0,0,1,0,4.39V.43A.43.43,0,0,1,.43,0Z" transform="translate(24.444 68.281)"/><path class="h" d="M.43,0H4.5a.431.431,0,0,1,.431.431V4.665a.43.43,0,0,1-.43.43H.43A.43.43,0,0,1,0,4.665V.43A.43.43,0,0,1,.43,0Z" transform="translate(24.444 73.744)"/><path class="h" d="M.431,0h2a.43.43,0,0,1,.43.43V3.788a.43.43,0,0,1-.43.43h-2A.43.43,0,0,1,0,3.788V.431A.431.431,0,0,1,.431,0Z"/><path class="h" d="M345.191,207.9v-5.432a.573.573,0,0,0-.573-.574h-3.444a.574.574,0,0,0-.574.574v4.859a.574.574,0,0,0,.574.573Z" transform="translate(-331.859 -129.064)"/><path class="h" d="M.431,0h2a.43.43,0,0,1,.43.43V3.855a.43.43,0,0,1-.43.43h-2A.43.43,0,0,1,0,3.855V.431A.431.431,0,0,1,.431,0Z" transform="translate(0 74.545)"/><path class="h" d="M.431,0H1.865A.43.43,0,0,1,2.3.43V4.825a.431.431,0,0,1-.431.431H.43A.43.43,0,0,1,0,4.826V.431A.431.431,0,0,1,.431,0Z" transform="translate(27.075 0.009)"/><path class="h" d="M336.671,147.214v7.756a.573.573,0,0,0,.573.573h3.444a.572.572,0,0,0,.573-.573v-7.182a.573.573,0,0,0-.573-.574Z" transform="translate(-333.163 -147.213)"/><path class="h" d="M348.46,159.3a.573.573,0,0,0,.573.574h3.444a.574.574,0,0,0,.574-.574V147.792a.573.573,0,0,0-.573-.573h-3.5a.521.521,0,0,0-.521.521Z" transform="translate(-329.25 -147.212)"/><path class="h" d="M344.53,147.217v8.666a.574.574,0,0,0,.573.574h3.446a.574.574,0,0,0,.573-.574v-8.093a.573.573,0,0,0-.573-.573Z" transform="translate(-330.554 -147.212)"/><path class="h" d="M340.6,147.215v6.048a.575.575,0,0,0,.573.574h3.446a.573.573,0,0,0,.573-.573V147.79a.574.574,0,0,0-.573-.574Z" transform="translate(-331.859 -147.213)"/><rect class="h" width="4.927" height="4.82" rx="0.43" transform="translate(24.444 57.354)"/><path class="h" d="M.43,0h3.73a.43.43,0,0,1,.43.43V4.39a.431.431,0,0,1-.431.431H.43A.43.43,0,0,1,0,4.39V.43A.43.43,0,0,1,.43,0Z" transform="translate(3.508 8.973)"/><path class="h" d="M.43,0h2a.431.431,0,0,1,.431.431V3.545a.43.43,0,0,1-.43.43h-2A.431.431,0,0,1,0,3.545V.43A.43.43,0,0,1,.43,0Z" transform="translate(0 18.819)"/><path class="h" d="M.43,0h2a.43.43,0,0,1,.43.43V3.545a.43.43,0,0,1-.43.43h-2A.431.431,0,0,1,0,3.545V.43A.43.43,0,0,1,.43,0Z" transform="translate(0 32.75)"/><path class="h" d="M.43,0h2a.431.431,0,0,1,.431.431V3.546a.43.43,0,0,1-.43.43h-2A.431.431,0,0,1,0,3.545V.43A.43.43,0,0,1,.43,0Z" transform="translate(0 28.106)"/><rect class="h" width="2.865" height="3.976" rx="0.43" transform="translate(0 23.462)"/><rect class="h" width="2.865" height="3.976" rx="0.43" transform="translate(0 14.175)"/><path class="h" d="M.431,0h3.73a.43.43,0,0,1,.43.43V4.39a.431.431,0,0,1-.431.431H.43A.43.43,0,0,1,0,4.39V.431A.431.431,0,0,1,.431,0Z" transform="translate(19.21 13.304)"/><path class="h" d="M.43,0H4.161a.43.43,0,0,1,.43.43V4.39a.43.43,0,0,1-.43.43H.431A.431.431,0,0,1,0,4.39V.43A.43.43,0,0,1,.43,0Z" transform="translate(8.742 7.268)"/><rect class="h" width="4.591" height="4.82" rx="0.43" transform="translate(13.976 9.887)"/><path class="h" d="M.43,0h2a.43.43,0,0,1,.43.43V3.545a.43.43,0,0,1-.43.43h-2A.431.431,0,0,1,0,3.545V.43A.43.43,0,0,1,.43,0Z" transform="translate(0 37.394)"/><path class="h" d="M.43,0h2a.431.431,0,0,1,.431.431V3.545a.43.43,0,0,1-.43.43h-2A.431.431,0,0,1,0,3.545V.43A.43.43,0,0,1,.43,0Z" transform="translate(0 65.257)"/><path class="h" d="M.43,0h2a.431.431,0,0,1,.431.431V3.545a.43.43,0,0,1-.43.43h-2A.43.43,0,0,1,0,3.545V.43A.43.43,0,0,1,.43,0Z" transform="translate(0 69.901)"/><path class="h" d="M.43,0h2a.43.43,0,0,1,.43.43V3.545a.43.43,0,0,1-.43.43h-2A.431.431,0,0,1,0,3.545V.43A.43.43,0,0,1,.43,0Z" transform="translate(0 60.613)"/><rect class="h" width="4.591" height="4.821" rx="0.43" transform="translate(3.508 69.07)"/><path class="h" d="M.43,0h2a.43.43,0,0,1,.43.43V3.545a.43.43,0,0,1-.43.43h-2A.431.431,0,0,1,0,3.545V.43A.43.43,0,0,1,.43,0Z" transform="translate(0 42.038)"/><path class="h" d="M341.262,207.471h0v-3.725a.574.574,0,0,0-.574-.573h-3.444a.572.572,0,0,0-.573.573V206.9a.573.573,0,0,0,.573.574Z" transform="translate(-333.163 -128.639)"/><path class="h" d="M.43,0h2a.431.431,0,0,1,.431.431V3.545a.43.43,0,0,1-.43.43h-2A.43.43,0,0,1,0,3.545V.43A.43.43,0,0,1,.43,0Z" transform="translate(0 55.969)"/><path class="h" d="M.43,0h2a.43.43,0,0,1,.43.43V3.545a.43.43,0,0,1-.43.43h-2A.431.431,0,0,1,0,3.545V.43A.43.43,0,0,1,.43,0Z" transform="translate(0 46.682)"/><path class="h" d="M.43,0h2a.43.43,0,0,1,.43.43V3.545a.43.43,0,0,1-.43.43h-2A.431.431,0,0,1,0,3.545V.43A.43.43,0,0,1,.43,0Z" transform="translate(0 51.326)"/></g><path class="i" d="M.684,0h9.1a.683.683,0,0,1,.683.683V19.861a.684.684,0,0,1-.684.684H.683A.683.683,0,0,1,0,19.862V.684A.684.684,0,0,1,.684,0Z" transform="translate(84.215 40.869)"/><path class="j" d="M364.243,189.648h2.427a.911.911,0,0,0,.911-.911V170.015a.911.911,0,0,0-.911-.911h-2.427Z" transform="translate(-272.897 -128.234)"/><path class="h" d="M295.662,140.694v97.673a2.276,2.276,0,0,0,2.275,2.276h.655V138.419h-.655A2.275,2.275,0,0,0,295.662,140.694Z" transform="translate(-295.662 -138.419)"/><path class="k" d="M296.153,238.366a2.278,2.278,0,0,0,2.276,2.278l41.628-5.839a2.947,2.947,0,0,0,2.467-2.838V147.126a2.95,2.95,0,0,0-2.467-2.84l-41.628-5.867a2.276,2.276,0,0,0-2.276,2.276Z" transform="translate(-295.499 -138.419)"/><path class="l" d="M340.372,226.936l-41.148,4.742-.032-.007a.5.5,0,0,1-.4-.491V144.307a.506.506,0,0,1,.4-.491l.032-.008,41.148,4.771Z" transform="translate(-294.623 -136.63)"/><path class="m" d="M340.112,226.7l-40.929,4.718a.3.3,0,0,1-.234-.289V144.255a.3.3,0,0,1,.236-.289l40.929,4.746Z" transform="translate(-294.572 -136.578)"/><g transform="translate(7.827 11.236)"><path class="i" d="M314.886,148.4l-13.347-1.547v79.757l13.347-1.538Z" transform="translate(-301.539 -146.855)"/><path class="i" d="M316.249,165.256v-16.7l-2.509-.291v16.753Z" transform="translate(-297.489 -146.386)"/><g transform="translate(20.444 2.37)"><path class="i" d="M323.814,156.608l-6.926-.784V162.9l6.926.644Z" transform="translate(-316.888 -146.247)"/><path class="i" d="M323.814,156.136v-6.7l-6.926-.8v6.718Z" transform="translate(-316.888 -148.634)"/><path class="i" d="M323.368,156.08l5.187.587v-6.68l-5.187-.6Z" transform="translate(-314.737 -148.385)"/><path class="i" d="M323.368,156.558v6.906l5.187.482v-6.8Z" transform="translate(-314.737 -146.004)"/></g><path class="d" d="M314.866,196.275v8.545l-6.887.595v-8.839Z" transform="translate(-299.401 -130.451)"/><g transform="translate(23.269 39.859)"><path class="d" d="M322.752,185.748h-1.8v24.974l1.8-.207Z" transform="translate(-318.363 -173.804)"/><path class="d" d="M319.008,176.781V214l1.551-.179V176.781Z" transform="translate(-319.008 -176.781)"/><path class="d" d="M326.1,177.281v35.461l1.542-.178V177.281Z" transform="translate(-316.653 -176.615)"/></g><path class="i" d="M313.74,164.125v54.882l2.509-.289V164.289Z" transform="translate(-297.489 -141.122)"/><path class="i" d="M323.084,164.736v52.633l2.983-.344,0-52.094Z" transform="translate(-294.387 -140.92)"/><path class="d" d="M316.888,164.331v54.124l1.785-.206v-53.8Z" transform="translate(-296.444 -141.054)"/></g><path class="n" d="M302.529,144.354l-3.346-.388a.3.3,0,0,0-.236.289v86.872a.3.3,0,0,0,.234.289l3.346-.386Z" transform="translate(-294.572 -136.578)"/><path class="o" d="M298.947,188.971V144.255a.3.3,0,0,1,.236-.289l40.929,4.746Z" transform="translate(-294.572 -136.578)"/></g><path class="p" d="M383.757,133.73l-13.314,15.1a4.5,4.5,0,0,1-2.921,1.5L354.5,151.649s-8.935.793-10.332,1.287c-.979.234.068,2.74,1.516,2.762.983.016,6.475-.807,8.839-.265-2.037.305-9.285,1.277-9.285,1.277l-7.035,2.953c-.087.035.093.7.057.786a.349.349,0,0,0,0,.269,1.743,1.743,0,0,0,1.18,1.018l.44.113-3.1,1.217a.668.668,0,0,0-.377.816h0a2.385,2.385,0,0,0,2.794,1.666l7.715-1.73s7.829-.316,7.848-.164c.045.392-8.1,2.031-8.1,2.031L339.5,168.03a.736.736,0,0,0-.364,1.014h0a3.417,3.417,0,0,0,3.1,1.673l5.689-1.43,8.692-1.1s2.316.084,3.777.238c.547.059-2.288,3.418-2.288,3.418l-3.631,1.769a3.253,3.253,0,0,0-1.927,2.5h0c-.123.81,1.644,1.373,2.443,1.2l4.6-1.012a4.57,4.57,0,0,0,1.465-.6l6.846-4.341a4.574,4.574,0,0,0,1.18-1.078l4.335-5.647a10.665,10.665,0,0,1,4.3-3.323l9.912-14.779Z" transform="translate(-282.148 -105.373)"/><path class="p" d="M386.453,226.935s-20.052-8.261-21.142-8.576l-12.564-3.648s-8.646-2.392-9.931-3.131c-.92-.408.562-2.683,1.991-2.443.968.162,6.221,1.963,8.646,1.857-1.949-.667-8.9-2.933-8.9-2.933l-6.387-4.176c-.079-.049.218-.67.2-.762a.351.351,0,0,1,.048-.265,1.751,1.751,0,0,1,1.345-.788l.453-.031-2.832-1.758a.669.669,0,0,1-.225-.871h0a2.385,2.385,0,0,1,3.05-1.133l7.275,3.093s7.644,1.726,7.689,1.58c.116-.377-7.6-3.46-7.6-3.46l-6.626-3.6a.738.738,0,0,1-.173-1.064h0a3.421,3.421,0,0,1,3.35-1.086l5.337,2.436,8.35,2.653s2.294.336,3.759.448c.549.041-1.634-3.773-1.634-3.773l-3.251-2.4a3.252,3.252,0,0,1-1.444-2.808h0c.027-.818,1.865-1.054,2.62-.735l4.338,1.825a4.558,4.558,0,0,1,1.332.859l5.951,5.5a4.582,4.582,0,0,1,.966,1.273l3.243,6.337a10.663,10.663,0,0,0,3.626,4.044l7.079,16.326Z" transform="translate(-281.916 -86.885)"/><path class="q" d="M421.708,138.551a39.147,39.147,0,0,0-22.891-15.962,13.155,13.155,0,0,0-4.459-.583c-7.933,1.63-30.96,23.408-30.956,28.974s7.938,13.209,10.914,12.958c.972-.083,9.956-8.805,13.563-10.879-3.568,21.856-3.648,68.206-.141,86.254-7.537-3.4-17.25-10.229-18.565-10.34-2.976-.25-12.893,7.755-10.914,12.958.723,1.9,27.687,26.271,40.661,27.7a18.742,18.742,0,0,0,6.473-.685,33.339,33.339,0,0,0,19.464-14.262c.757-1.159,17.09-20.88,16.6-54.01-.092-6.249-.639-6.217.124-11.609,3.363-23.763-17.362-46.886-17.362-46.886C424.195,142.156,423.133,140.622,421.708,138.551Z" transform="translate(-274.969 -109.282)"/><path class="r" d="M405.33,268.94c.127-.033.246-.083.372-.116,5.321-1.66,11.175-5.662,17.307-11.653q.943-1.2,1.785-2.493c.757-1.159,18.947-31.185,16.6-54.01-.639-6.216-.639-6.217.124-11.609.12-1.437.246-3.2.354-5.428-.053-21.735-17.716-41.458-17.716-41.458-.023-.017-1.084-1.552-2.509-3.623a40.155,40.155,0,0,0-9.438-9.7,62.72,62.72,0,0,0-14.113-6.421,14.852,14.852,0,0,0-3.339-.473,3.907,3.907,0,0,0-.46.044c-7.933,1.63-30.96,23.408-30.956,28.974,5.875-9.189,34.171-33.889,36.51-24.566-6.545,9.918-9.679,12.5-12.033,26.645,2.068-3.564,8.129-20.532,11.9-17.984-9.918,15.6,3.174,31.088,2.912,42.453.077,3.181.577,28.47-.141,33.738-.125,13.461-13.406,27.615-1.316,40.575,3.879,4.157-9.056-1.75-13.5-12.528,1.365,11.572,5.769,15.918,13.762,25.223-4.615,4.706-33.437-15.2-43.24-22.6.723,1.9,27.687,26.271,40.661,27.7A18.742,18.742,0,0,0,405.33,268.94Z" transform="translate(-274.905 -109.281)"/><path class="s" d="M398.092,122.433c-.332-.075-.647-.141-.95-.2h-.005l-.109-.02c-.293-.056-.575-.105-.838-.143h0a8.489,8.489,0,0,0-1.437-.109,3.907,3.907,0,0,0-.46.044c-7.933,1.63-30.96,23.408-30.956,28.974,5.875-9.189,34.171-33.889,36.51-24.566-6.545,9.918-9.679,12.5-12.033,26.645,2.068-3.564,8.129-20.532,11.9-17.984-9.918,15.6,3.174,31.088,2.912,42.453.077,3.181.577,28.47-.141,33.738-.125,13.461-13.406,27.615-1.316,40.575,3.879,4.157-9.056-1.75-13.5-12.528,1.365,11.572,5.769,15.918,13.762,25.223-4.615,4.706-33.437-15.2-43.24-22.6.723,1.9,27.687,26.271,40.661,27.7a18.742,18.742,0,0,0,6.473-.685c.127-.033.246-.083.372-.116h0a33.374,33.374,0,0,0,19.092-14.146c.757-1.159,17.09-20.88,16.6-54.01-.092-6.249-.639-6.217.124-11.609,3.363-23.763-17.362-46.886-17.362-46.886-.023-.017-1.084-1.552-2.509-3.623a39.147,39.147,0,0,0-22.891-15.962c-.226-.055-.445-.107-.661-.155Z" transform="translate(-274.905 -109.281)"/><path class="m" d="M391.649,161.88c6.252,0,11.658,6.962,11.658,19.024s-4.6,19.137-10.85,19.137-11.977-6.492-11.977-18.554S385.4,161.88,391.649,161.88Z" transform="translate(-267.507 -96.029)"/><path class="c" d="M393.958,124.305h0c10.176,6.915,30.557,32.755,30.327,53.215-.18,15.925-5.529,5.885-.12,31,4.013,18.634-11.631,45.337-24.377,56.823a13.1,13.1,0,0,1,2.918-1.277A34.449,34.449,0,0,0,412.923,253.9c.757-1.159,17.09-20.88,16.6-54.01-.092-6.249-.639-6.217.124-11.609,3.363-23.763-17.362-46.886-17.362-46.886-.023-.017-1.084-1.552-2.509-3.623A39.674,39.674,0,0,0,393.958,124.305Z" transform="translate(-263.034 -108.502)"/><g transform="translate(67.652 58.143)"><path class="t" d="M376.612,209.981c-4.108-4.47-7.607-7.378-15.9-8.273-26.478-6.453-10.521-42.583,3.365-40.809,2.211.282,4.286.579,6.263.882a27.277,27.277,0,0,0,6.273-5.41c.838-.911,10.06.5,11.761,3.162,1.24,1.941.783,4.144,2.772,4.4,4.979.65,10.63,2.773,12.356,2.773,10.829,0,10.906,32.157,0,32.936-3.32.237-7.378,2.124-12.356,2.773-1.989.258-1.532,2.461-2.772,4.4C386.672,209.478,377.45,210.893,376.612,209.981Z" transform="translate(-346.454 -156.093)"/></g><g transform="translate(62.246 55.731)"><path class="u" d="M408.076,183.776c.294-7.507-1.437-11.766-7.316-16.443-4.206-3.346-17.661-7.579-24.305-10.363-11.754-4.79-27.774-4.578-30.684,12.4-3.556,10.658-10.032,36.371,16.444,42.825,5.517.6,10.389,1.6,14.24-1.61,12.35-4.4,17.887-7.339,22.871-10.235,6.914-4.017,8.391-8.233,8.736-16.22C408.066,184.009,408.07,183.892,408.076,183.776Z" transform="translate(-342.395 -154.282)"/></g><path class="v" d="M378.881,167.27a23.826,23.826,0,0,1,9.118,19.4c0,.116-.009.232-.013.349-.345,7.988-1.823,12.2-8.736,16.22-4.435,2.577-6.5,4.3-8.1,6.293,10.906-3.985,16.1-6.756,20.789-9.482,6.914-4.017,8.391-8.233,8.736-16.222.005-.116.009-.233.015-.349.294-7.507-1.437-11.766-7.316-16.443-4.206-3.346-17.661-7.579-24.307-10.363a38.79,38.79,0,0,0-4.409-1.492C371.3,157.965,374.677,163.924,378.881,167.27Z" transform="translate(-272.76 -98.253)"/><path class="w" d="M351.448,173.752c-5.679,8.588-9.511,27.009,10.766,38.44-26.476-6.453-20-32.166-16.445-42.826,2.912-16.973,18.931-17.185,30.684-12.4C364.7,152.181,350.344,157.521,351.448,173.752Z" transform="translate(-280.149 -98.551)"/><path class="w" d="M361.794,169.966c-5.394-.434,1.335-.847,2.946-4.964s.634,3.667,5.585,3.083c3.061-.36.537,2.912-2.6,2.573-1.953-.21-1.727,4.256-2.3,4.5C361.365,176.9,366.662,170.356,361.794,169.966Z" transform="translate(-274.393 -95.394)"/></g><g transform="translate(386.701 103.12)"><path class="x" d="M379.53,123.184c-4.509-.85-7.292-6.154-6.22-11.845s5.6-9.617,10.108-8.766,7.294,6.154,6.22,11.845S384.039,124.035,379.53,123.184Z" transform="translate(-361.003 -100.624)"/><path class="y" d="M367.164,104.658a11.467,11.467,0,0,0,.425,16.211c4.6,4.358,16.307,5.966,19.921,1.758s.46-14.036-4.134-18.4A11.466,11.466,0,0,0,367.164,104.658Z" transform="translate(-364.012 -101.08)"/><path class="z" d="M380.319,107.386c-.1-1.287,1.193-2.7,2.212-3.294,1.869-1.1,2.388,2.647,2.379,3.737-.06,6.742-4.341,2.857-4.591-.444Zm-2.608.2c.442,5.815,8.3,9.434,8.891,2.2.209-2.565.606-6.517-2.818-7.9C380.981,100.748,377.494,104.727,377.711,107.585Z" transform="translate(-359.469 -100.881)"/><path class="m" d="M364.927,108.071a11.467,11.467,0,1,0,15.035-6.076A11.469,11.469,0,0,0,364.927,108.071Z" transform="translate(-364.013 -101.081)"/><path class="aa" d="M366.253,108.351A9.492,9.492,0,1,0,378.7,103.32,9.491,9.491,0,0,0,366.253,108.351Z" transform="translate(-363.521 -100.588)"/><g transform="translate(1.976 2.36)"><path class="ab" d="M383.07,108.183a1.09,1.09,0,0,0,.715.373.9.9,0,0,0-.122.606v.052l-.02.025a1.023,1.023,0,0,0-.2.778.6.6,0,0,0,.268.429.806.806,0,0,0,.158.924.79.79,0,0,0-.044.743.906.906,0,0,0,.005.19.781.781,0,0,0-.077.682,1.068,1.068,0,0,0-.04.32.9.9,0,0,0-.257.461c-.019.013-.036.024-.053.039a.881.881,0,0,0-.284.362q-.1.432-.041.044a.893.893,0,0,0-.494,1.163c.036.072.076.144.115.214a.641.641,0,0,0-.021.345c.007.029.016.057.021.087a.815.815,0,0,0-.272.77c0,.019.019.075.039.147l-.087-.061a.809.809,0,0,0-1.324.617h-.016a1.15,1.15,0,0,0-.182.056,1.8,1.8,0,0,0-.474-.266l-.061-.021a.557.557,0,0,0-.322-.212.916.916,0,0,0-1.016.285c-.015.017-.111.169-.056.087a.369.369,0,0,0-.064.253,1.15,1.15,0,0,0-.2.446.891.891,0,0,0,0,.41.831.831,0,0,0-1.016-.091,1.241,1.241,0,0,0-.433,1.04h0a.7.7,0,0,0-1.088.293.737.737,0,0,0-1.151.316,2.621,2.621,0,0,1-.262-.1.653.653,0,0,0-.862.26.772.772,0,0,0-.21.049.919.919,0,0,0-.164.088,3.469,3.469,0,0,0-.08-.36c-.19-.674-1.144-.6-1.44-.075-.012-.029-.021-.057-.037-.088a1.057,1.057,0,0,0-.645-.5.835.835,0,0,0-.943.047c-.091.081-.248.217-.4.372a.815.815,0,0,0-.08-.088.707.707,0,0,0-.282-.452l-.028-.017.007-.012a1.625,1.625,0,0,0,.079-1.283.685.685,0,0,0-.394-.416,1.16,1.16,0,0,0-.286-.45,1.361,1.361,0,0,0-.567-.986,1.734,1.734,0,0,0,0-.185.736.736,0,0,0-.171-.4,1.219,1.219,0,0,0-.27-.507.765.765,0,0,0-.258-.218.79.79,0,0,0-.633-.818.821.821,0,0,0-.322-.31.741.741,0,0,0-.144-.333.877.877,0,0,0,.177-.437.751.751,0,0,0-.169-.573.731.731,0,0,0,.048-.659.708.708,0,0,0,0-.469.668.668,0,0,0,.26-.994.579.579,0,0,1-.1-.174.627.627,0,0,0,.071-.121.252.252,0,0,0,.008-.033.7.7,0,0,0,.473-.527,2.161,2.161,0,0,0,0-.669.792.792,0,0,0,.382-.5,1.9,1.9,0,0,0,.024-.193.667.667,0,0,0,.547-.763.653.653,0,0,0,.891-.445.71.71,0,0,0,.434-.722c-.009-.059-.076-.294-.132-.482a.73.73,0,0,0,.312-.34,1.2,1.2,0,0,0,.229-.048.673.673,0,0,0,.413-.531c.112-.519.021-.059.337-.5-.285.394.107.072.365.067a.717.717,0,0,0,.593-.45,2.474,2.474,0,0,0,.087-.365,2.053,2.053,0,0,0,.5-.531,9.492,9.492,0,1,0,10.887,4.365c-.083.115-.17.222-.22.31A.647.647,0,0,0,383.07,108.183Z" transform="translate(-365.496 -102.853)"/><path class="ab" d="M375.057,103.349a1.856,1.856,0,0,0,1.883,1.042c.326-.045.631.731.8.939a1.649,1.649,0,0,0,1.381.468A9.458,9.458,0,0,0,375.6,103.2c-.253-.107-.509-.2-.766-.284C374.908,103.047,374.981,103.185,375.057,103.349Z" transform="translate(-362.397 -102.831)"/></g><g transform="translate(2.169 2.766)"><path class="aa" d="M369.133,118.326a.157.157,0,0,1-.024.017c-.008,0-.012.011-.021.015l-.02.009-.011.007-.011,0c-.242.081-.392-.286-.149-.368l.011-.005.012,0,.021-.007a.084.084,0,0,1,.025,0,.111.111,0,0,1,.029,0A.192.192,0,0,1,369.133,118.326Zm-.86-.874a.167.167,0,0,0,.306.131A.167.167,0,0,0,368.273,117.452Zm.426-.24-.005.013a.068.068,0,0,0,.125.053l.007-.013C368.867,117.186,368.727,117.128,368.7,117.213Zm-.618-.6.011.028c.08.228.446.08.345-.14l-.012-.027A.185.185,0,0,0,368.081,116.617Zm-.2.084a.164.164,0,0,0-.2.236.162.162,0,0,0-.1.253l.009.008a.17.17,0,0,0,.29-.035.157.157,0,0,0-.005-.139c.123-.047.181-.274.016-.32Zm.221.213a.129.129,0,0,0,.238.1A.129.129,0,0,0,368.1,116.914Zm-.382-.755a.116.116,0,0,0,.214.091A.116.116,0,0,0,367.723,116.159Zm-.346-.051c-.047.21.306.308.342.06a.2.2,0,0,0-.036-.155A.171.171,0,0,0,367.376,116.109Zm-.374-.162-.017.008a.146.146,0,0,0-.079.185l.007.02a.163.163,0,1,0,.089-.213Zm.374-.386-.017.017a.154.154,0,1,0,.245.144c0-.071-.007-.152-.085-.177A.144.144,0,0,0,367.376,115.56Zm.377.032a.467.467,0,0,0-.04.064c-.117.2.265.361.326.139a.726.726,0,0,0,.02-.072A.174.174,0,0,0,367.753,115.592Zm0-.615a.165.165,0,0,0-.188.056c-.009.008-.012.012-.005.008a.114.114,0,0,0-.016.02.214.214,0,0,0,.013.317.216.216,0,0,0,.329-.084.231.231,0,0,0,.021-.152A.2.2,0,0,0,367.753,114.976Zm0,0h0l-.016-.005Zm-.777.02v.028c0,.147.164.3.3.177l.019-.017a.2.2,0,1,0-.318-.188Zm-.277.417a.171.171,0,0,0,.314.133A.171.171,0,0,0,366.7,115.413Zm-.089-1.064-.017.012a.19.19,0,0,0,0,.3.178.178,0,0,0,.051.029.187.187,0,0,0-.044.043c-.009.009-.061.115-.007.033a.393.393,0,0,0-.044.085c-.105.262.338.366.361.1a.229.229,0,0,0-.168-.252.212.212,0,0,0,.154-.16l.005-.02C366.938,114.357,366.729,114.267,366.612,114.349Zm.634.057a.062.062,0,0,0-.028.109l.02.019a.074.074,0,0,0,.1-.012l.008-.012A.074.074,0,0,0,367.246,114.406Zm-1.032-.416a.142.142,0,0,0,.261.111A.142.142,0,0,0,366.214,113.991Zm-.155-.715h-.012a.048.048,0,0,0-.061.025.105.105,0,0,0,0,.1.093.093,0,0,0,.159.023C366.191,113.367,366.142,113.257,366.059,113.276Zm-.007-.428-.009.008c-.093.085.1.168.1.041v-.012A.056.056,0,0,0,366.052,112.848Zm.182-.691h-.029c-.208,0-.064.36.088.218l.021-.02A.112.112,0,0,0,366.235,112.157Zm-.052-.206a.164.164,0,0,0,.3.128A.164.164,0,0,0,366.183,111.95Zm-.37-.029a.166.166,0,0,0,.16.286C366.2,112.115,366,111.774,365.813,111.921Zm.1-.394a.169.169,0,1,0,.269.113l0-.024a.156.156,0,0,0-.266-.089Zm.332-.35-.028.011c-.2.068-.068.388.121.3l.027-.012A.16.16,0,0,0,366.246,111.176Zm.049-.582a.157.157,0,0,0,.157.217l-.008.009-.015.021a.2.2,0,1,0,.364.1v-.025a.191.191,0,0,0-.225-.166.134.134,0,0,0,.021-.032A.159.159,0,0,0,366.295,110.594Zm4.491,8.953a.135.135,0,0,0,.248.105A.135.135,0,0,0,370.786,119.548Zm.474.477c.019.005.033.016.052.021a.053.053,0,0,0,.069-.027.1.1,0,0,0-.04-.133C371.238,119.814,371.154,119.993,371.26,120.024Zm.3.284a.168.168,0,0,0,.1.045.029.029,0,0,0,.031-.039.183.183,0,0,0-.06-.093C371.575,120.174,371.5,120.27,371.56,120.308Zm.185.116a.128.128,0,0,0,.061.016.022.022,0,0,0,.016-.039.145.145,0,0,0-.053-.033A.03.03,0,0,0,371.745,120.424Zm.469-.386a1.323,1.323,0,0,0-.116.178.045.045,0,0,0,.061.064.255.255,0,0,0,.12-.214A.042.042,0,0,0,372.214,120.038Zm.406-.222a.155.155,0,0,0-.111.029c-.12.091.028.257.134.173l.021-.012a.076.076,0,0,0,.045-.119l-.005-.005A.1.1,0,0,0,372.62,119.815Zm.437.8a.012.012,0,0,0,.024,0C373.078,120.556,373.049,120.556,373.057,120.612Zm.032.188c.024.045.081.023.06-.024S373.069,120.764,373.089,120.8Zm-.374.16a.046.046,0,0,0,.085.036A.046.046,0,0,0,372.715,120.96Zm-.276-.715-.017.009a.149.149,0,0,0,0,.272c.129.055.226-.072.194-.19l-.005-.02A.128.128,0,0,0,372.439,120.244Zm.974.325a.1.1,0,0,0,.188.08A.1.1,0,0,0,373.413,120.569Zm.585.209h.013a.108.108,0,0,0,.08-.189l-.011-.009C373.943,120.448,373.807,120.77,374,120.778Zm.254-.007h.013a.118.118,0,0,0,.088-.208l-.009-.009C374.193,120.409,374.043,120.765,374.252,120.772Zm.322-.567-.007.013c-.041.075.1.133.123.051l0-.013A.065.065,0,0,0,374.574,120.2Zm.324.454a.136.136,0,0,0,.1-.246A.136.136,0,1,0,374.9,120.658Zm-.269.364a.127.127,0,0,0,.132.174l.012,0a.118.118,0,0,0,.079-.186l-.007-.011A.126.126,0,0,0,374.629,121.022Zm.952-.453a.167.167,0,0,0-.163.065c-.113.121.1.294.2.16a.52.52,0,0,1,.033-.043A.113.113,0,0,0,375.581,120.569Zm.22-.328c0,.005-.007.033-.011.039-.06.1.1.153.119.051a.092.092,0,0,0-.045-.105A.04.04,0,0,0,375.8,120.242Zm-.016-.492c-.168-.045-.248.237-.053.264a.164.164,0,0,0,.127-.028A.132.132,0,0,0,375.785,119.75Zm.659.277a.138.138,0,0,0-.108,0,.128.128,0,0,0,0,.234.125.125,0,0,0,.17-.128.1.1,0,0,0,0-.035h0v0A.106.106,0,0,0,376.444,120.027Zm.226.448c-.081.032,0,.155.064.085C376.773,120.521,376.721,120.453,376.671,120.475Zm.458-.075a.135.135,0,0,0,.248.105A.135.135,0,0,0,377.129,120.4Zm.7-.538a.744.744,0,0,0-.1.073.038.038,0,0,0-.04-.012.1.1,0,0,0-.04.029.043.043,0,0,0,0,.069.111.111,0,0,0,.184.121.275.275,0,0,0,.064-.249A.047.047,0,0,0,377.833,119.862Zm-.164-.293-.007.013a.127.127,0,0,0-.024-.031.124.124,0,0,0-.2.112l0,.017v0a.105.105,0,0,0,.087.1.107.107,0,0,0,.079-.012.137.137,0,0,0,.072-.141.014.014,0,0,0,.015-.011l.008-.028A.018.018,0,0,0,377.67,119.569Zm-1.384-.119a.192.192,0,0,0,.151.262.107.107,0,0,0,.021,0,.191.191,0,0,0,.25.152l.009,0a.173.173,0,0,0,.1-.225l0-.009a.2.2,0,0,0-.144-.108.212.212,0,0,0-.025-.076.259.259,0,0,0-.06-.067A.193.193,0,0,0,376.286,119.45Zm2.1-.109a.169.169,0,0,0,.31.132A.169.169,0,0,0,378.382,119.341Zm-.252-.511a.056.056,0,0,0,.1.043A.056.056,0,0,0,378.13,118.83Zm-.446.123a.1.1,0,0,0,.188.08A.1.1,0,0,0,377.684,118.952Zm-.229-.246-.028.013a.162.162,0,1,0,.21.089l-.009-.029A.134.134,0,0,0,377.455,118.706Zm.4-.036.04.017a.192.192,0,0,0,.151-.353l-.04-.017A.192.192,0,0,0,377.852,118.67Zm.976.42.04.016A.167.167,0,0,0,379,118.8l-.039-.019A.169.169,0,0,0,378.828,119.089Zm.774-.206a.181.181,0,0,0-.141.333c.128.051.262.056.332-.085a.147.147,0,0,0-.043-.169c.024.02.017.012-.02-.023a.18.18,0,0,0-.061-.032A.672.672,0,0,1,379.6,118.883Zm-.071-.473-.02.039c-.067.125.159.22.2.085l.013-.041A.106.106,0,0,0,379.532,118.41Zm-.192-.534a.09.09,0,0,0,.165.071A.09.09,0,0,0,379.34,117.876Zm-.365.554.045.027h0l-.015-.007.017.015v0a.072.072,0,0,0,.085.027.166.166,0,0,0,.065-.253C379.051,118.057,378.806,118.329,378.975,118.43Zm.031.02Zm.19-.88a.1.1,0,0,0-.039.028c-.064.063.092.129.093.039a.093.093,0,0,0-.008-.047A.036.036,0,0,0,379.2,117.57Zm.47-.381a.152.152,0,0,0-.177.049.125.125,0,0,0-.065-.065l-.027-.012a.136.136,0,0,0-.107.25l.027.011a.124.124,0,0,0,.139-.025.14.14,0,0,0,.087.083c.041.016.083.029.123.044a.294.294,0,0,0,.122.012c.009,0,.133-.039.043-.015a.092.092,0,0,0,.075-.075C379.941,117.29,379.781,117.231,379.666,117.189Zm.514.412a.1.1,0,0,0-.025.2C380.332,117.821,380.366,117.627,380.18,117.6Zm.019.757.028.009a.162.162,0,0,0,.127-.3l-.027-.013C380.138,117.965,380,118.284,380.2,118.357Zm1.319-.5a.652.652,0,0,0-.1.005c-.141.008-.159.177-.089.262a.181.181,0,0,0-.2.1.177.177,0,0,0,.138.244h.013a.173.173,0,0,0,.132-.3.145.145,0,0,0,.048,0c.095-.021.16-.056.18-.159A.136.136,0,0,0,381.518,117.859Zm.184-.924a.161.161,0,0,0-.137.035.137.137,0,0,0,.072.242c-.139.019-.205.233-.045.292a.267.267,0,0,0,.117.017c.2-.013.158-.318-.04-.306l.044,0a.218.218,0,0,0-.049-.007.122.122,0,0,0,.056-.021C381.853,117.167,381.837,116.957,381.7,116.934Zm.448.464.015,0a.159.159,0,0,0,.119-.28l-.011-.009C382.061,116.942,381.881,117.365,382.149,117.4Zm-.7.206a.261.261,0,0,0-.123.149.06.06,0,0,0,.031.077.26.26,0,0,0,.192.021A.137.137,0,1,0,381.45,117.6Zm-.694-.093a.192.192,0,0,0,.353.149A.192.192,0,0,0,380.756,117.511Zm-.4,1.012a.169.169,0,0,0,.31.132A.169.169,0,0,0,380.351,118.523Zm-.139.26-.02.005a.15.15,0,0,0,0,.274l.02.005C380.481,119.148,380.481,118.7,380.212,118.783Zm-.718.638a.313.313,0,0,1-.02.053.1.1,0,0,0,.083.144.218.218,0,0,0,.209-.083C379.921,119.372,379.564,119.151,379.494,119.421Zm-.527.5.013,0a.075.075,0,0,0,.056-.132l-.012-.008A.076.076,0,1,0,378.967,119.919Zm-.4-.031a.07.07,0,0,0,.128.055A.07.07,0,0,0,378.57,119.889Zm-.589-.5a.2.2,0,0,0-.136.108c-.048.115.025-.056-.012.032a.109.109,0,0,0-.007.059.1.1,0,0,0,.061.076l-.025-.024a.159.159,0,0,0,.06.047.287.287,0,0,0,.1.023A.165.165,0,1,0,377.981,119.386Zm-1,.262a.137.137,0,0,0,.252.107A.137.137,0,0,0,376.977,119.649Zm-.289.563a.154.154,0,0,0,.284.121A.154.154,0,0,0,376.688,120.212Zm-.847.767,0,.009a.157.157,0,0,0,.205.088l.009-.005a.167.167,0,1,0-.217-.092Zm6.706-4.549a.084.084,0,0,0,.155.067A.084.084,0,0,0,382.547,116.431Zm.378-.163h.013a.1.1,0,0,0,.077-.181l-.009-.011C382.875,115.947,382.74,116.263,382.925,116.268Zm.185-.527-.011.007c-.146.105.159.234.132.056l0-.012A.075.075,0,0,0,383.111,115.741Zm.093-.582a.181.181,0,0,0-.083.033.113.113,0,0,0-.032.132.121.121,0,0,0,.213.059.493.493,0,0,0,.032-.052A.125.125,0,0,0,383.2,115.159Zm-.472-.124a.124.124,0,0,0-.169.1.169.169,0,0,0,.04.157c.152.193.409-.115.181-.232A.177.177,0,0,0,382.732,115.035Zm.388-.087a1.3,1.3,0,0,0-.133-.073.111.111,0,0,0-.087.205.47.47,0,0,0,.213.059.523.523,0,0,0,.132-.064.042.042,0,0,0,.017-.063A.136.136,0,0,0,383.12,114.948Zm.257,0a.138.138,0,0,0,.254.107A.138.138,0,0,0,383.377,114.944Zm.04-.358a.119.119,0,0,0,.218.093A.119.119,0,0,0,383.417,114.586Zm-.486-.309h-.012a.1.1,0,0,0-.069.164l.007.009C383.005,114.627,383.161,114.263,382.931,114.277Zm.416-.4c-.069.015-.056.125.015.109l.087-.017a.03.03,0,0,0,.021-.048A.106.106,0,0,0,383.346,113.882Zm.276.108-.007.011a.052.052,0,1,0,.092.04l0-.013C383.723,113.98,383.647,113.947,383.622,113.989Zm.186.121-.019,0a.072.072,0,0,0-.053.128l-.005-.009a.077.077,0,0,0,.143-.057l0-.009A.078.078,0,0,0,383.809,114.111Zm-.493.093c-.109-.029-.184.148-.088.206l.012.007a.117.117,0,1,0,.089-.21Zm.445-.376a.156.156,0,0,0,.286.121A.156.156,0,0,0,383.761,113.828Zm.125-.446a.158.158,0,0,0,.29.124A.158.158,0,0,0,383.886,113.382Zm.115-.5-.009,0a.138.138,0,0,0-.083.133v.008a.139.139,0,0,0,.245.1l.019-.021C384.277,113,384.128,112.821,384,112.881Zm.016-.4-.027,0a.166.166,0,0,0-.125.293l.023.017C384.116,112.952,384.3,112.526,384.016,112.478Zm.043-.386a.178.178,0,0,0-.157.178.123.123,0,0,0,.217.092.213.213,0,0,0,.068-.141A.117.117,0,0,0,384.059,112.091Zm.258-.366a.034.034,0,0,0,.063.027A.034.034,0,0,0,384.317,111.725Zm-.185-.232-.019,0a.123.123,0,0,0-.081.192l.011.013a.131.131,0,1,0,.089-.208Zm-.393-.035-.008.011a.131.131,0,1,0,.236.1l0-.013A.13.13,0,0,0,383.739,111.459Zm.153-.288a.153.153,0,0,0,.282.12A.153.153,0,0,0,383.892,111.171ZM384,110.8a.115.115,0,0,0-.005-.029l-.005-.019a.141.141,0,0,0-.1-.093.177.177,0,1,0-.163.248.143.143,0,0,0,.178.051l.019-.009a.2.2,0,0,1,.318.031l0,.011C384.368,110.815,384.094,110.67,384,110.8Zm-.254-.717a.143.143,0,0,0,.264.112A.143.143,0,0,0,383.743,110.079Zm.105-.486a.122.122,0,0,0,.224.1A.122.122,0,0,0,383.849,109.593Zm-.437-.356-.016.04a.143.143,0,0,0,.129.2.128.128,0,0,0-.048.154l.005.009a.139.139,0,0,0,.254,0,.133.133,0,0,0-.128-.186.142.142,0,0,0,.055-.063l.017-.04A.146.146,0,0,0,383.412,109.237Zm-.209.394a.128.128,0,0,0,.234.1A.128.128,0,0,0,383.2,109.631Zm.269-1.415a.088.088,0,0,0,.161.069A.088.088,0,0,0,383.472,108.217Zm-.131-.566h-.028a.092.092,0,0,0-.068.163l.02.017C383.393,107.942,383.51,107.665,383.341,107.651Zm-.452.226a.125.125,0,0,0,.23.1A.125.125,0,0,0,382.89,107.877Zm.18-.384h0c-.005.008-.012.015-.017.024l-.007.013,0,.005,0,.007a.118.118,0,0,0,.217.092l0-.007v-.005l.005-.013a.123.123,0,0,0,.005-.029h0A.114.114,0,0,0,383.069,107.494Zm-4.691-4.181a.262.262,0,0,0,.483.2A.262.262,0,0,0,378.378,103.313Zm.715.238h-.013a.163.163,0,0,0-.109.258l.008.009a.169.169,0,1,0,.115-.268Zm.538.462-.028,0a.039.039,0,0,0-.029.069l.021.017C379.657,104.142,379.707,104.024,379.632,104.013Zm.3-.024h-.015a.16.16,0,0,0-.119.281l.009.009a.163.163,0,1,0,.124-.289Zm.309.519a.174.174,0,0,0,.224.228l.009,0a.166.166,0,0,0,.089-.21l0-.009A.174.174,0,0,0,380.244,104.509Zm.663.511h.013a.126.126,0,0,0,.095-.222L381,104.79C380.836,104.655,380.693,104.992,380.908,105.02Zm.156.19-.005.027a.03.03,0,0,0,.053.023l.016-.023A.036.036,0,1,0,381.063,105.211Zm.115.194a.113.113,0,0,0,.144.147l.011,0a.1.1,0,0,0,.056-.132l0-.009A.113.113,0,0,0,381.178,105.405Zm-15.439,5.413-.009,0a.146.146,0,0,0-.061.221l0,.007a.13.13,0,0,0,.123.052h.008a.147.147,0,0,0,.116-.2l0-.009A.135.135,0,0,0,365.739,110.818Zm.141-.3v.024a.115.115,0,0,0,.182.077l.02-.016a.128.128,0,1,0-.2-.085Zm.345-.562a.165.165,0,0,0-.111-.149.667.667,0,0,0-.133-.04.186.186,0,0,0-.139.328.6.6,0,0,0,.12.069.173.173,0,0,0,.225-.069c.039.127.27.19.316.025l0-.015A.161.161,0,0,0,366.226,109.959Zm-.131-.51-.029.008c-.221.067-.071.436.133.33l.027-.015A.175.175,0,0,0,366.1,109.449Zm.639-.226a.134.134,0,0,0,.031.156.179.179,0,0,0-.181,0h-.005c-.2.076-.065.4.124.306a.3.3,0,0,0,.1-.076.142.142,0,0,0-.008-.2.139.139,0,0,0,.206-.064A.147.147,0,0,0,366.734,109.222Zm-.4-.029.041.013a.156.156,0,0,0,.123-.288l-.039-.019C366.271,108.806,366.135,109.127,366.329,109.193Zm.113-.562-.027.012a.131.131,0,0,0,.1.244l.029-.011C366.7,108.822,366.6,108.558,366.443,108.631Zm.635-.166h0C367.073,108.482,367.074,108.477,367.078,108.465Zm.288.121-.005.007S367.359,108.6,367.366,108.586Zm-.273-.17c.016-.059-.007.021-.015.049a.214.214,0,0,0-.007.056.151.151,0,0,0-.246.1l-.005.027a.156.156,0,0,0,.274.117l.017-.023a.169.169,0,0,0,.033-.092.155.155,0,0,0,.216-.059c0-.013.032-.068.032-.073a.168.168,0,0,0-.017-.1C367.323,108.314,367.133,108.274,367.093,108.415Zm-.577-.18a.247.247,0,0,0,.028.06.2.2,0,1,0,.341-.192.257.257,0,0,0-.081-.084A.187.187,0,0,0,366.516,108.235Zm.358-.482a.19.19,0,0,0,.35.149A.19.19,0,0,0,366.874,107.753Zm.523.057,0,.027a.175.175,0,0,0,.309.132l.009-.013a.181.181,0,0,0,.016-.22l-.005-.011C367.639,107.577,367.42,107.669,367.4,107.811Zm.464-.237.005-.009-.017.019-.011.008v.005a.253.253,0,0,0-.052.077.158.158,0,0,0,.29.123.284.284,0,0,0,.023-.133C368.094,107.538,367.945,107.512,367.861,107.574Zm-.521-.445Zm.011-.009-.011.009h0a.138.138,0,1,0,.168,0l-.009-.009A.124.124,0,0,0,367.351,107.119Zm.08-.265a.134.134,0,0,0-.009.22.22.22,0,0,0,.1.045c.117.032.2-.115.164-.21A.157.157,0,0,0,367.431,106.854Zm.517-.077-.027.013a.169.169,0,0,0,.127.313l.029-.009C368.29,107.031,368.145,106.674,367.948,106.777Zm.661.244a.284.284,0,0,1-.136.1c-.169.068-.324-.185-.161-.285a.156.156,0,0,1,.093-.091.2.2,0,0,1,.089-.012A.178.178,0,0,1,368.608,107.021Zm-.713-.647a.111.111,0,0,0-.128.048l-.011.009a.163.163,0,0,0-.032.119.157.157,0,1,0,.171-.176Zm.1-.217a.124.124,0,0,0-.015.2l.02.019a.133.133,0,0,0,.188-.021.225.225,0,0,0,.032-.055.132.132,0,0,0-.068-.168l-.007,0A.133.133,0,0,0,368,106.156Zm.381-.322a.171.171,0,0,0,.037.2.217.217,0,0,0-.051.079.213.213,0,0,0,.135.28l-.013.021a.152.152,0,0,0,.158.208l.024,0a.137.137,0,0,0,.091-.214l-.013-.02a.126.126,0,0,0-.048-.044.192.192,0,0,0,.025-.269.029.029,0,0,1-.016-.02l-.013-.02a.18.18,0,0,0,.031-.045A.188.188,0,0,0,368.377,105.834Zm.457.585c-.012.172.31.158.238-.043a.142.142,0,0,0-.091-.092C368.9,106.252,368.8,106.332,368.834,106.419Zm-.755-.974-.037.017a.178.178,0,0,0,.133.329l.039-.013C368.431,105.7,368.289,105.349,368.078,105.445Zm1.056-.428a.118.118,0,0,0-.073-.073c-.025-.009-.052-.016-.077-.023-.22-.06-.257.364,0,.328a.237.237,0,0,0,.079-.024.185.185,0,1,0,.073-.208Zm-.061.856-.009.016a.174.174,0,0,0,.112.277c.116.016.248-.119.182-.236l-.011-.019C369.3,105.822,369.144,105.758,369.073,105.874Zm.506-1.181a.191.191,0,0,0,.148.26l.013,0c.174.048.3-.24.141-.332l-.012-.007A.191.191,0,0,0,369.579,104.693Zm.461-.34.027.007a.136.136,0,0,0,.052,0,.072.072,0,0,0-.029.052c-.005.053.023.06.056.095.121.124.256-.2.049-.176l-.013,0a.171.171,0,0,0,.013-.274l-.024-.015A.172.172,0,1,0,370.04,104.353Zm-.774.024a.2.2,0,0,0-.076.177.164.164,0,0,0,.258.109.2.2,0,0,0,.075-.177A.163.163,0,0,0,369.266,104.377Zm1.259-.593,0,.013a.159.159,0,0,0,.292.124l.007-.012C370.914,103.726,370.592,103.588,370.525,103.784Zm.457-.346a.161.161,0,0,0-.185.088.156.156,0,0,0,.161.213.2.2,0,0,0,.043-.011.158.158,0,0,0-.067.209c.1.253.474.012.306-.172a.19.19,0,0,0-.21-.049.176.176,0,0,0,.084-.128A.128.128,0,0,0,370.982,103.438Zm.28-.059a.127.127,0,0,0,.234.1A.127.127,0,0,0,371.262,103.379Z" transform="translate(-365.641 -103.158)"/></g><g transform="translate(2.416 2.805)"><path class="ac" d="M374.837,114.606a.068.068,0,0,0,.035.1l.04.017a.078.078,0,0,0,.06-.143l-.04-.016A.068.068,0,0,0,374.837,114.606Z" transform="translate(-362.838 -99.413)"/><path class="ac" d="M377.663,113.552a.041.041,0,0,0,.028.028v.228a.045.045,0,0,0-.035.031c-.005.012-.005.023.013.039a.157.157,0,0,0,.069.011c.017,0,.019-.005.021-.009a.065.065,0,0,0-.007-.048.036.036,0,0,0-.029-.02l-.028,0,0-.23.017-.011.024,0s0-.016-.013-.033S377.692,113.527,377.663,113.552Z" transform="translate(-361.901 -99.754)"/><path class="ac" d="M376.606,114.929a.038.038,0,0,0,.023.052c.043.012.048,0,.052-.009a.058.058,0,0,0-.005-.055c-.009-.011-.037,0-.045,0Z" transform="translate(-362.249 -99.295)"/><path class="ac" d="M375.578,114.941a.077.077,0,0,0,0,.048.041.041,0,0,0,.024.02l.04.015a.052.052,0,0,0,.041-.1l-.039-.019c-.019-.008-.028-.005-.031,0A.072.072,0,0,0,375.578,114.941Z" transform="translate(-362.592 -99.298)"/><path class="ac" d="M376.784,114.678c-.016.037.008.056.031.067a.049.049,0,1,0,.037-.089C376.83,114.646,376.8,114.642,376.784,114.678Z" transform="translate(-362.191 -99.382)"/><path class="ac" d="M366.431,111.588a.048.048,0,0,0-.02.025.077.077,0,0,0,.021.089l.021.012.013.007.017,0a.092.092,0,0,0,.063-.057l.011-.037c0-.009.007-.024-.017-.041A.1.1,0,0,0,366.431,111.588Z" transform="translate(-365.634 -100.405)"/><path class="ac" d="M378.046,113.671a.057.057,0,0,0,0,.048c0,.005.015.011.045.015a.04.04,0,0,0,.043-.028c.005-.011.011-.032-.021-.057-.013-.011-.024-.016-.031-.015A.066.066,0,0,0,378.046,113.671Z" transform="translate(-361.773 -99.719)"/><path class="ac" d="M376.153,115.331l0,.011a.388.388,0,0,1-.019.055v0c.037,0,.056-.007.1-.049l.007-.009h0a.061.061,0,0,0-.049-.037C376.173,115.3,376.166,115.3,376.153,115.331Z" transform="translate(-362.407 -99.165)"/><path class="ac" d="M374.525,114.895a.044.044,0,0,0,.021.06.042.042,0,0,0,.057-.027.054.054,0,0,0,0-.041l-.025-.035-.027.013A.058.058,0,0,0,374.525,114.895Z" transform="translate(-362.94 -99.315)"/><path class="ac" d="M376.128,114.988a.052.052,0,0,0-.041,0,.082.082,0,0,0-.039.043.073.073,0,0,0,0,.057.047.047,0,0,0,.031.025c.145.057.173,0,.188-.028h0s0-.02-.021-.037l0,0-.012-.011a.09.09,0,0,0-.037-.016C376.172,115,376.149,115,376.128,114.988Z" transform="translate(-362.436 -99.272)"/><path class="ac" d="M376.61,114.4a.059.059,0,0,0,0,.044s0,.009.02.015l.027.011a.043.043,0,0,0,.061-.025.043.043,0,0,0-.024-.063l-.027-.012a.037.037,0,0,0-.024,0A.066.066,0,0,0,376.61,114.4Z" transform="translate(-362.249 -99.478)"/><path class="ac" d="M367.189,112.073l-.013.019,0,.008-.015.015a.107.107,0,0,0-.023.032.1.1,0,0,0,.027.113.1.1,0,0,0,.081.017.107.107,0,0,0,.072-.059l0-.007a.112.112,0,0,0,.011-.073.1.1,0,0,0-.077-.081A.052.052,0,0,0,367.189,112.073Z" transform="translate(-365.395 -100.244)"/><path class="ac" d="M376.129,113.732l-.023.023.008.024s0,.009.019.015l.121.043a.2.2,0,0,0,.063.008l.028-.008c.005-.036-.021-.064-.168-.119A.036.036,0,0,0,376.129,113.732Z" transform="translate(-362.414 -99.693)"/><path class="ac" d="M366.358,108.891l-.021.025-.008.013-.012.021a.089.089,0,0,0,.041.124.081.081,0,0,0,.112-.051.136.136,0,0,0,.012-.056v-.027a.038.038,0,0,0-.015-.031.107.107,0,0,0-.081-.023Z" transform="translate(-365.667 -101.295)"/><path class="ac" d="M377.6,114.024a.16.16,0,0,0-.048.041h.008l0,.229a.24.24,0,0,0-.057.012.079.079,0,0,0,.009.067l0,0h.011c.075-.016.081-.033.087-.045l.007-.021a.032.032,0,0,0-.016-.019l.015-.232c.017,0,.025-.011.027-.015a.027.027,0,0,0-.009-.028C377.624,114.013,377.613,114.016,377.6,114.024Z" transform="translate(-361.954 -99.592)"/><path class="ac" d="M365.846,109.752a.052.052,0,0,0-.016.019.063.063,0,0,0,.015.063.04.04,0,0,0,.048.007.046.046,0,0,0,.027-.02.072.072,0,0,0-.028-.072C365.878,109.737,365.867,109.735,365.846,109.752Z" transform="translate(-365.826 -101.012)"/><path class="ac" d="M366.146,109.743a.041.041,0,0,0,.028.059c.031.013.051.007.061-.02s0-.047-.027-.059A.042.042,0,0,0,366.146,109.743Z" transform="translate(-365.722 -101.02)"/><path class="ac" d="M377.364,114.458a.066.066,0,0,0,.005.059.06.06,0,0,0,.051.027.056.056,0,0,0,.061-.035.055.055,0,0,0-.016-.067l-.017-.016-.013,0A.067.067,0,0,0,377.364,114.458Z" transform="translate(-361.998 -99.457)"/><path class="ac" d="M375.306,115.292a.054.054,0,1,0,.068-.023A.046.046,0,0,0,375.306,115.292Z" transform="translate(-362.681 -99.178)"/><path class="ac" d="M367.715,113.874c-.012.028,0,.049.029.063s.055.007.067-.023,0-.049-.029-.063S367.727,113.846,367.715,113.874Z" transform="translate(-365.201 -99.649)"/><path class="ac" d="M366.536,112.344a.047.047,0,0,0,.031.068.05.05,0,1,0-.031-.068Z" transform="translate(-365.593 -100.158)"/><path class="ac" d="M368.181,114.327h-.008l-.029.011a.06.06,0,0,0-.041.032.1.1,0,0,0,.025.1.082.082,0,0,0,.091.023l.017-.008.033-.024a.091.091,0,0,0,.023-.029.082.082,0,0,0-.011-.076.077.077,0,0,0-.081-.028Z" transform="translate(-365.073 -99.491)"/><path class="ac" d="M373.4,116.426a.09.09,0,0,0,0,.06.052.052,0,0,0,.052.015.071.071,0,0,0,.035-.039.052.052,0,0,0-.024-.063A.042.042,0,0,0,373.4,116.426Z" transform="translate(-363.313 -98.803)"/><path class="ac" d="M366.691,112.8c0,.008,0,.02.007.053,0,.005.005.017.031.019a.058.058,0,0,0,.056-.028.049.049,0,0,0-.012-.052.044.044,0,0,0-.049-.012Z" transform="translate(-365.54 -100.003)"/><path class="ac" d="M367.032,112.476l-.02.017a.083.083,0,0,0-.019.025.034.034,0,0,0,.009.044.046.046,0,0,0,.039,0,.039.039,0,0,0,.024-.013v-.005a.14.14,0,0,0-.007-.064c-.017-.005-.029-.005-.028-.008Z" transform="translate(-365.44 -100.104)"/><path class="ac" d="M366.125,109.215c-.015,0-.017.011-.019.013a.071.071,0,0,0,.02.068.026.026,0,0,0,.035.005l.027-.013a.053.053,0,0,0,.027-.024h0a.052.052,0,0,0-.012-.052c-.008-.009-.021-.017-.048-.008Z" transform="translate(-365.734 -101.191)"/><path class="ac" d="M366.23,108.724c-.008.021,0,.029,0,.033a.06.06,0,0,0,.051.024h.016l.016-.021c0-.009.016-.037-.025-.055S366.234,108.716,366.23,108.724Z" transform="translate(-365.694 -101.357)"/><path class="ac" d="M374.9,115.412l-.009.021.011,0,.015.013a.165.165,0,0,0,.061.015c.044,0,.051-.016.055-.023a.071.071,0,0,0-.009-.065c-.012-.013-.032-.016-.063-.007A.087.087,0,0,0,374.9,115.412Z" transform="translate(-362.816 -99.145)"/><path class="ac" d="M377.088,113.922a.078.078,0,0,0,.143.06.078.078,0,0,0-.143-.06Z" transform="translate(-362.091 -99.638)"/><path class="ac" d="M366.445,111.866l.008.005a.264.264,0,0,0-.029.059v0a.059.059,0,0,0,.036.089c.031.013.083.016.1-.017a.126.126,0,0,0-.083-.158l-.016,0Z" transform="translate(-365.632 -100.314)"/><path class="ac" d="M367.052,112.825l-.005.035c-.009.043.033.06.047.064a.049.049,0,0,0,.067-.027h0l.229.04v0h0l-.222-.055a.091.091,0,0,0-.017-.073.038.038,0,0,0-.039-.016A.068.068,0,0,0,367.052,112.825Z" transform="translate(-365.422 -100)"/><path class="ac" d="M373.732,115.378a.068.068,0,0,0,.005.065c.005.011.021.035.04.037h.02l.1.008.011.095a.068.068,0,0,0,.031.047.092.092,0,0,0,.079.005.052.052,0,0,0,.025-.029.055.055,0,0,0,0-.048.085.085,0,0,0-.06-.044l-.08-.013-.013-.081a.125.125,0,0,0-.011-.037.152.152,0,0,0-.033-.033.071.071,0,0,0-.065-.012A.072.072,0,0,0,373.732,115.378Z" transform="translate(-363.204 -99.155)"/><path class="ac" d="M366.753,111.995l0,.012v.027a.115.115,0,0,0,.059.1.043.043,0,0,0,.052-.011l.019-.017a.124.124,0,0,0,.032-.043h0a.081.081,0,0,0-.023-.1.1.1,0,0,0-.083-.012A.071.071,0,0,0,366.753,111.995Z" transform="translate(-365.52 -100.279)"/><path class="ac" d="M367.187,113.561a.036.036,0,0,0,.007.044.078.078,0,0,0,.067.027.045.045,0,0,0,.033-.029.046.046,0,0,0,0-.04l-.021-.039-.057.009A.046.046,0,0,0,367.187,113.561Z" transform="translate(-365.376 -99.756)"/><path class="ac" d="M367.265,113.376a.048.048,0,0,0,0,.044l.029.051.029-.011a.079.079,0,0,0,.035-.043.068.068,0,0,0,.005-.052l-.028-.012C367.3,113.342,367.276,113.35,367.265,113.376Z" transform="translate(-365.35 -99.814)"/><path class="ac" d="M374.033,115.944c0,.009-.013.032.023.048s.047-.008.051-.017.013-.031-.023-.047S374.037,115.936,374.033,115.944Z" transform="translate(-363.104 -98.959)"/><path class="ac" d="M367.573,113.148a.071.071,0,0,0,0,.055l.009.028a.048.048,0,0,0,.048.037.1.1,0,0,0,.089-.049.046.046,0,0,0,0-.041l-.013-.028a.064.064,0,0,0-.063-.044A.079.079,0,0,0,367.573,113.148Z" transform="translate(-365.248 -99.895)"/><path class="ac" d="M365.93,109.451a.09.09,0,0,0-.021.031.049.049,0,0,0,.023.071.056.056,0,0,0,.071-.032.048.048,0,0,0,0-.028l0-.024a.041.041,0,0,0-.024-.029C365.971,109.435,365.955,109.428,365.93,109.451Z" transform="translate(-365.801 -101.113)"/><path class="ac" d="M368.128,104.526a.091.091,0,0,0,0,.08s.008.011.036.007a.118.118,0,0,0,.041-.012l.036-.019-.021-.053c-.016-.005-.033-.011-.069-.02C368.142,104.506,368.137,104.5,368.128,104.526Z" transform="translate(-365.065 -102.749)"/><path class="ac" d="M379.443,109.156c0,.009-.013.031.023.047s.044-.007.048-.016.013-.031-.023-.045S379.447,109.147,379.443,109.156Z" transform="translate(-361.308 -101.212)"/><path class="ac" d="M368.3,104.6l.017.048a.089.089,0,0,0,.077.051.053.053,0,0,0,.056-.04.055.055,0,0,0-.015-.071.083.083,0,0,0-.092-.013Z" transform="translate(-365.007 -102.73)"/><path class="ac" d="M367.832,105.344a.149.149,0,0,0-.025.039h0a.1.1,0,0,0,0,.083.093.093,0,0,0,.055.047l.047.016.039-.04a.129.129,0,0,0,.029-.041.066.066,0,0,0,0-.061.136.136,0,0,1-.048-.076v.013l-.033-.051Z" transform="translate(-365.172 -102.494)"/><path class="ac" d="M367.795,105.154a.056.056,0,0,0,.012.071l.063.063.06-.075a.065.065,0,0,0-.041-.091A.063.063,0,0,0,367.795,105.154Z" transform="translate(-365.176 -102.547)"/><path class="ac" d="M379.433,110.18c-.028-.005-.043.023-.047.032a.047.047,0,0,0,.009.056l.023.017c.013.009.032.02.045.016a.066.066,0,0,0,.037-.04.061.061,0,0,0,0-.055.059.059,0,0,0-.043-.023Z" transform="translate(-361.327 -100.866)"/><path class="ac" d="M379.19,108.773a.063.063,0,0,0,.007.057.068.068,0,0,0,.053.031h.055l.035.044a.035.035,0,0,0,.048.012l.023-.015,0-.005-.008-.041c0-.007-.005-.013-.02-.016l-.061-.015-.021-.06a.044.044,0,0,0-.037-.027A.076.076,0,0,0,379.19,108.773Z" transform="translate(-361.392 -101.345)"/><path class="ac" d="M367.507,104.915a.063.063,0,0,0-.035.032.073.073,0,0,0,.016.073.055.055,0,0,0,.065.011l.04-.013c.023-.008.027-.019.028-.023a.09.09,0,0,0-.024-.089c-.016-.016-.031-.017-.068,0Z" transform="translate(-365.282 -102.62)"/><path class="ac" d="M368.3,105.214a.079.079,0,0,0,0,.069c0,.008.012.019.037.021a.076.076,0,0,0,.067-.045l-.011-.039a.072.072,0,0,0-.077-.035Z" transform="translate(-365.008 -102.524)"/><path class="ac" d="M379.506,108.894v.039c0,.023.011.029.017.031s.029-.011.037-.024l.005,0,.011-.016v0s-.011-.016-.029-.024a.042.042,0,0,0-.036,0Z" transform="translate(-361.286 -101.295)"/><path class="ac" d="M375.733,103.511a.039.039,0,0,0,.005.045.082.082,0,0,0,.071.028c.009,0,.021-.007.031-.028a.042.042,0,0,0,0-.043.094.094,0,0,0-.083-.032A.056.056,0,0,0,375.733,103.511Z" transform="translate(-362.54 -103.089)"/><path class="ac" d="M376.7,104.158a.061.061,0,0,0,.017.065.049.049,0,0,0,.061.008.06.06,0,0,0,.029-.028.078.078,0,0,0,0-.051.043.043,0,0,0-.044-.028A.06.06,0,0,0,376.7,104.158Z" transform="translate(-362.217 -102.876)"/><path class="ac" d="M376.339,103.838c-.008.016,0,.039.02.059l.028.012a.067.067,0,0,0,.045-.031.066.066,0,0,0-.009-.055l-.028-.012C376.367,103.811,376.345,103.82,376.339,103.838Z" transform="translate(-362.338 -102.98)"/><path class="ac" d="M368.7,104.3a.055.055,0,0,0,0,.051.127.127,0,0,0,.088.057c.033.009.057-.047.057-.047s.024-.057-.017-.083a.123.123,0,0,0-.091-.016A.054.054,0,0,0,368.7,104.3Z" transform="translate(-364.876 -102.832)"/><path class="ac" d="M375.305,103.272a.136.136,0,0,0,.081.185.139.139,0,1,0,.108-.256A.135.135,0,0,0,375.305,103.272Z" transform="translate(-362.685 -103.187)"/><path class="ac" d="M368.947,103.863a.056.056,0,0,0,0,.051.068.068,0,0,0,.049.029l.035.005h.015v0a.069.069,0,0,0,.023-.031s.017-.04-.005-.055l-.023-.016a.078.078,0,0,0-.056-.015A.061.061,0,0,0,368.947,103.863Z" transform="translate(-364.793 -102.975)"/><path class="ac" d="M368.418,104.118a.115.115,0,0,0-.007.053s.009.016.028.024.033.007.036,0a.1.1,0,0,0,.033-.041.075.075,0,0,0,.005-.044.044.044,0,0,0-.028-.029.042.042,0,0,0-.04,0A.08.08,0,0,0,368.418,104.118Z" transform="translate(-364.969 -102.891)"/><path class="ac" d="M369.672,103.4l-.013,0a.048.048,0,0,0-.048.023.03.03,0,0,0,0,.032c.008.011.024.023.061.017l.008,0a.047.047,0,0,0,.02-.025.138.138,0,0,0,.008-.031.043.043,0,0,0-.023-.008Z" transform="translate(-364.572 -103.118)"/><path class="ac" d="M369.711,103.627a.056.056,0,0,0,0,.044c.015.037.032.037.041.037a.1.1,0,0,0,.084-.055c0-.007.008-.016-.009-.035C369.8,103.584,369.713,103.619,369.711,103.627Z" transform="translate(-364.538 -103.049)"/><path class="ac" d="M379.343,111.152c0,.009-.013.033.024.049s.048-.008.052-.017.015-.033-.023-.049S379.347,111.142,379.343,111.152Z" transform="translate(-361.341 -100.551)"/><path class="ac" d="M366.836,107.074h0l-.015.048a.112.112,0,0,0,0,.025v.023l.017.011a.036.036,0,0,0,.051-.009l.024-.051a.054.054,0,0,0-.007-.024.06.06,0,0,0-.037-.027C366.852,107.064,366.84,107.066,366.836,107.074Z" transform="translate(-365.497 -101.899)"/><path class="ac" d="M366.4,106.853a.069.069,0,0,0,.005.057.189.189,0,0,0,.02.041.087.087,0,0,0,.08.056.092.092,0,0,0,.079-.051.088.088,0,0,0-.015-.08.152.152,0,0,0-.047-.049.1.1,0,0,0-.079-.011A.068.068,0,0,0,366.4,106.853Z" transform="translate(-365.639 -101.983)"/><path class="ac" d="M366.667,106.6a.066.066,0,0,0,.041.093.069.069,0,1,0,.055-.127A.066.066,0,0,0,366.667,106.6Z" transform="translate(-365.55 -102.069)"/><path class="ac" d="M378.448,112.11a.062.062,0,0,0,.019.063c.005.008.016.02.025.019a.058.058,0,0,0,.037-.035h0c.005-.012.011-.024-.024-.043l-.025-.012-.027.009Z" transform="translate(-361.637 -100.228)"/><path class="ac" d="M367.065,106.621l-.005.028a.056.056,0,0,0,.037.059.055.055,0,0,0,.069-.017l.016-.019.009-.015a.093.093,0,0,0-.016-.08.029.029,0,0,0-.031-.017A.1.1,0,0,0,367.065,106.621Z" transform="translate(-365.417 -102.067)"/><path class="ac" d="M366.634,107.226l0,.028c0,.02.016.032.025.035a.034.034,0,0,0,.043-.007l.016-.021.012-.031v-.012l-.021-.015a.076.076,0,0,0-.055-.012Z" transform="translate(-365.56 -101.858)"/><path class="ac" d="M366.055,107.916c-.019.007-.023.013-.024.017a.1.1,0,0,0,.04.1l-.087.212a.566.566,0,0,0-.064-.017.066.066,0,0,0-.068.044.065.065,0,0,0,.015.079.5.5,0,0,0,.1.056c.015.007.049.023.083-.028l.021-.031,0-.035c0-.031-.017-.043-.056-.059l.065-.218a.045.045,0,0,0,.027-.008l.025-.012a.075.075,0,0,0,.037-.036.061.061,0,0,0-.012-.063.062.062,0,0,0-.071-.013Z" transform="translate(-365.82 -101.621)"/><path class="ac" d="M366.621,107.692c-.007.013-.005.019,0,.028l-.137.181a.067.067,0,0,0-.067,0l-.041.019,0,0a.077.077,0,0,0,.021.075c.011.011.019.011.033,0a.159.159,0,0,0,.076-.063c0-.005.007-.015-.008-.029l.135-.184a.045.045,0,0,0,.035.007s.005,0,.011-.015a.032.032,0,0,0-.019-.037C366.632,107.667,366.624,107.683,366.621,107.692Z" transform="translate(-365.644 -101.697)"/><path class="ac" d="M366.3,107.333l-.071.218c-.016,0-.032.023-.036.033a.042.042,0,0,0,.011.052l.041.015c.028.009.047,0,.057-.021a.04.04,0,0,0-.024-.055l-.044-.023.079-.221.032-.009a.033.033,0,0,0-.016-.035l-.039.023Z" transform="translate(-365.705 -101.826)"/><path class="ac" d="M367.387,106.489l-.007.007a.144.144,0,0,0-.031.045.043.043,0,0,0,.024.051c.04.017.052-.009.055-.017a.188.188,0,0,0,.013-.091A.055.055,0,0,0,367.387,106.489Z" transform="translate(-365.322 -102.094)"/><path class="ac" d="M379.437,110.817c0,.009-.015.035.025.052s.051-.009.055-.019.015-.035-.025-.052S379.441,110.809,379.437,110.817Z" transform="translate(-361.31 -100.662)"/><path class="ac" d="M367.35,105.6l-.015-.005-.012.017-.009.009-.005.027a.045.045,0,0,0,.048.037c.02,0,.025-.011.028-.017a.062.062,0,0,0,0-.053.028.028,0,0,0-.02-.013Z" transform="translate(-365.334 -102.387)"/><path class="ac" d="M379.461,110.507v.027s0,.016.015.023a.029.029,0,0,0,.023,0h0a.191.191,0,0,1,.032-.037h0a.05.05,0,0,0-.021-.035h-.032Z" transform="translate(-361.301 -100.765)"/><path class="ac" d="M367.779,105.881a.068.068,0,0,0-.021.028l-.028.045-.029.019a.055.055,0,0,0,.02.053.044.044,0,0,0,.051.015.165.165,0,0,0,.084-.061l.008-.015a.072.072,0,0,0,0-.064.053.053,0,0,0-.043-.027C367.811,105.873,367.807,105.873,367.779,105.881Z" transform="translate(-365.205 -102.295)"/><path class="ac" d="M367.421,105.91a.07.07,0,0,0-.035.033.053.053,0,0,0,.011.056.06.06,0,0,0,.065.012l.028-.009c.017-.005.02-.011.021-.015a.093.093,0,0,0-.027-.087.026.026,0,0,0-.036-.005Z" transform="translate(-365.31 -102.29)"/><path class="ac" d="M367.062,105.981l-.012.008a.148.148,0,0,0,.057.024.053.053,0,0,0,.021-.025.054.054,0,0,0,0-.033c0-.008-.02-.02-.057-.023Z" transform="translate(-365.42 -102.276)"/><path class="ac" d="M366.172,108.267l-.021.025,0,.009a.09.09,0,0,0,.072.041c.017,0,.019,0,.021-.008l.005-.02c.009-.035,0-.059-.017-.069A.048.048,0,0,0,366.172,108.267Z" transform="translate(-365.719 -101.509)"/><path class="ac" d="M367.9,105.636l.025-.005a.025.025,0,0,0,.021-.013c0-.007,0-.016-.008-.031l-.016-.019-.031-.016-.021.033C367.87,105.6,367.873,105.613,367.9,105.636Z" transform="translate(-365.147 -102.402)"/></g></g></g></svg>