<svg xmlns="http://www.w3.org/2000/svg" width="126.666" height="324.536" viewBox="0 0 126.666 324.536"><defs><style>.a{fill:#383838;}.a,.y{opacity:0.17;}.b,.e,.q{fill:#1d1d1b;}.c,.j,.y,.z{fill:#fff;}.c{opacity:0.5;}.d{fill:#231f20;}.e{opacity:0.06;}.f{fill:#f0f0ea;}.g{fill:#ffcba1;}.h{fill:#2a3e5e;}.i{opacity:0.05;}.k{fill:#2f4368;}.l{fill:#e65975;}.m{fill:#f597aa;}.n{fill:#82d859;}.o{fill:#f6f6f6;}.p,.x{fill:none;stroke-miterlimit:10;}.p{stroke:#ededed;stroke-width:0.262px;}.q{opacity:0.1;}.r{fill:#706f6f;}.s{fill:#333;}.t{fill:#ededed;}.u{fill:#dadada;}.v{fill:#c6c6c6;}.w{fill:#ffc496;}.x{stroke:#c6c6c6;stroke-width:0.25px;}.z{opacity:0.23;}.aa{fill:#ff6584;}.ab{fill:#563c1f;}.ac{fill:#3f2e18;}</style></defs><g transform="translate(-47.257 -10.75)"><g transform="translate(150.894 110.139)"><path class="a" d="M142.868,82.844c-.077-.268-2.542-.629-2.542-.629a4.141,4.141,0,0,1-.465.651,1.1,1.1,0,0,1-1.028.234c-.456-.128-7.041-1.25-9.216,3a18.03,18.03,0,0,0-.961,3.546s-.53,3.5,1.669,5.766a16.062,16.062,0,0,0,4.607,3.453,1.085,1.085,0,0,1,.3,1.19c-.162.577-.539.91-.831.906a16.064,16.064,0,0,0-5.691.866c-3.011.959-4.2,4.294-4.2,4.294a18.034,18.034,0,0,0-.83,3.579c-.089,4.77,6.245,6.893,6.708,7a1.1,1.1,0,0,1,.8.692,4.125,4.125,0,0,1,.1.793s2.342.846,2.538.645a30.209,30.209,0,0,0,2.04-4.734,41.265,41.265,0,0,0,1.3-6.253c.146-1.174.034-5.377.034-5.77a9.314,9.314,0,0,1,.443-1.406,9.506,9.506,0,0,1,.274-1.451c.186-.347,2.269-4,2.7-5.1a41.333,41.333,0,0,0,1.806-6.127A30.123,30.123,0,0,0,142.868,82.844Zm-7.9,20.05c2.368,2.251.153,11.18-1.956,12.316-.534.288-.959.95-5.022-.661a6.075,6.075,0,0,1-3.149-3.12,4.143,4.143,0,0,1-.224-2.045,11.768,11.768,0,0,1,.661-2.59c1.069-2.7,2.359-3.388,3.244-3.746a11.119,11.119,0,0,1,4.094-.754A5.333,5.333,0,0,1,134.963,102.894Zm5.47-17.252c1.321,2-.944,10.912-4.1,11.779a5.351,5.351,0,0,1-2.356-.584,11.086,11.086,0,0,1-3.252-2.6c-.611-.735-1.423-1.949-1.09-4.835a11.793,11.793,0,0,1,.643-2.594,4.154,4.154,0,0,1,1.163-1.7,6.079,6.079,0,0,1,4.25-1.261C140.036,84.352,140.1,85.135,140.433,85.642Z" transform="translate(-120.586 -80.146)"/><path class="b" d="M121.456,114a.722.722,0,0,0-.015.272.712.712,0,0,0,.8.611l9.626-1.307a.713.713,0,0,0,.568-.447l11.326-29.146a.713.713,0,0,0-1.329-.516l-11.173,28.754-9.21,1.25A.715.715,0,0,0,121.456,114Z" transform="translate(-121.434 -79.848)"/><path class="b" d="M127.71,81.247a.713.713,0,0,0,.267.751l7.475,5.523-4.018,30.585a.713.713,0,1,0,1.413.186l4.074-31a.71.71,0,0,0-.284-.666l-7.813-5.773a.714.714,0,0,0-1,.15A.7.7,0,0,0,127.71,81.247Z" transform="translate(-119.082 -80.712)"/><g transform="translate(3.833 2.391)"><path class="c" d="M139.357,85.435c1.321,2-.944,10.912-4.1,11.779a5.332,5.332,0,0,1-2.356-.584,11.1,11.1,0,0,1-3.252-2.6c-.611-.734-1.422-1.949-1.089-4.835a11.793,11.793,0,0,1,.641-2.594,4.162,4.162,0,0,1,1.163-1.7,6.077,6.077,0,0,1,4.251-1.262C138.961,84.146,139.023,84.929,139.357,85.435Z" transform="translate(-122.614 -82.008)"/><path class="c" d="M133.3,109.955c-.534.288-.959.95-5.022-.659a6.082,6.082,0,0,1-3.15-3.12,4.15,4.15,0,0,1-.223-2.046,11.77,11.77,0,0,1,.661-2.59c1.069-2.7,2.357-3.387,3.244-3.746a11.112,11.112,0,0,1,4.093-.754,5.356,5.356,0,0,1,2.353.6C137.619,99.892,135.4,108.82,133.3,109.955Z" transform="translate(-123.977 -76.961)"/><g transform="translate(2.735 1.613)"><path class="c" d="M131.145,84a6.387,6.387,0,0,1,2.64-.359c4.341.5,4.4,1.284,4.737,1.79.882,1.334.161,5.744-1.351,8.791a10.718,10.718,0,0,1-2.285-1.383,16.533,16.533,0,0,1-3.354-3.8A5.326,5.326,0,0,1,131.145,84Z" transform="translate(-124.513 -83.621)"/><path class="c" d="M132.393,97.039a5.357,5.357,0,0,1,2.353.6c1.595,1.517,1.108,6.055-.023,9.21-.669.026-1.839-.26-5.3-2.7a8.522,8.522,0,0,1-3.135-4.263,3.53,3.53,0,0,1-.081-.468,4.664,4.664,0,0,1,2.093-1.625A11.112,11.112,0,0,1,132.393,97.039Z" transform="translate(-126.207 -78.574)"/></g><path class="d" d="M143.4,83.079c-.076-.27-2.54-.63-2.54-.63a4.172,4.172,0,0,1-.465.651,1.1,1.1,0,0,1-1.029.234c-.454-.127-7.041-1.25-9.215,3a18.056,18.056,0,0,0-.961,3.546s-.531,3.5,1.669,5.766a16.072,16.072,0,0,0,4.606,3.453,1.088,1.088,0,0,1,.305,1.19c-.164.577-.541.91-.831.906a16.072,16.072,0,0,0-5.692.866c-3.01.959-4.195,4.294-4.195,4.294a18.035,18.035,0,0,0-.83,3.579c-.089,4.771,6.245,6.893,6.706,7a1.1,1.1,0,0,1,.8.692,4.05,4.05,0,0,1,.1.793s2.342.846,2.538.647a30.3,30.3,0,0,0,2.04-4.736,41.287,41.287,0,0,0,1.3-6.253c.146-1.174.036-5.375.036-5.769a9.463,9.463,0,0,1,.442-1.408,9.465,9.465,0,0,1,.275-1.449c.186-.347,2.269-4,2.695-5.1a41.069,41.069,0,0,0,1.806-6.127A30.1,30.1,0,0,0,143.4,83.079Zm-7.9,20.048c2.367,2.253.153,11.18-1.956,12.316-.534.288-.959.95-5.022-.659a6.082,6.082,0,0,1-3.15-3.12,4.15,4.15,0,0,1-.223-2.046,11.768,11.768,0,0,1,.661-2.59c1.069-2.7,2.357-3.387,3.244-3.746a11.112,11.112,0,0,1,4.093-.754A5.357,5.357,0,0,1,135.494,103.128Zm5.469-17.252c1.321,2-.944,10.912-4.1,11.779a5.332,5.332,0,0,1-2.356-.584,11.1,11.1,0,0,1-3.252-2.6c-.611-.734-1.422-1.949-1.089-4.835a11.793,11.793,0,0,1,.641-2.594,4.161,4.161,0,0,1,1.163-1.7,6.077,6.077,0,0,1,4.251-1.262C140.567,84.586,140.629,85.369,140.963,85.876Z" transform="translate(-124.219 -82.449)"/></g></g><g transform="translate(43.126 2.489)"><path class="e" d="M126.113,169.929a2.838,2.838,0,0,0-1.144-1.976,2.529,2.529,0,0,0,.868-1.964l.012-45.248a2.016,2.016,0,0,0-1.812-2.172h-3.107c.005-.146.012-.3.017-.438a15.5,15.5,0,0,0,1.4-.928c.011-.714,0-1.387-.011-2.042a2.767,2.767,0,0,0,.874-.611c7.195-12.406,9.581-19.582,9.837-23.267,1.848-26.515.861-46.2-5.38-52.887a2.173,2.173,0,0,0-.666-.65,73.142,73.142,0,0,0-10.827-5.539c.8-3.139,1.68-6.2-2.115-10.334-1.627-1.771-3.607-3.416-4.4-5.871C104-1.538,89.665,1.234,81.533,6.419c-5.516,0-8.746,8.184-9.873,17.208A47.867,47.867,0,0,0,71.1,30.91a94.868,94.868,0,0,0-15.629,9.073c-7.459,2.4-6.192,46.3-6.068,49.959a86.056,86.056,0,0,0,7.107,28.628h-.377a2.017,2.017,0,0,0-1.814,2.172L54.3,165.989a2.527,2.527,0,0,0,.866,1.964,2.846,2.846,0,0,0-1.144,1.976l-10.9,9.884v.626a2.016,2.016,0,0,0,1.812,2.172H67.92a98.185,98.185,0,0,0,3.636,16.176c2.1,5.971.713,20.288,1.347,29.946.586,8.918,3.2,20.207,5.538,28.871l-2.163,15.873c.237.213.486.4.734.593-.226,1.115-.494,2.414-.8,3.831-3.2,8.574-9.606,26.336-9.278,34.942.483,12.708,13.418,6.57,16.168-7.864.619-3.249,1.109-6.516,1.5-9.632q.126.7.26,1.405c2.75,14.434,15.686,20.573,16.168,7.864.328-8.605-6.081-26.367-9.278-34.942-.383-1.779-.709-3.374-.963-4.656l-.028-.944c3.756-9.955,7.712-20.975,11.524-31.886,3.936-11.268,1.6-24.261,3.1-30.089,1.457-5.681,3.023-12.438,4.569-19.488h25.224a2.018,2.018,0,0,0,1.812-2.173v-.625ZM119.2,89.685a36.529,36.529,0,0,1-2.151,7.543,36.519,36.519,0,0,1-3.581-11.071,15.622,15.622,0,0,0,6.23-7.764C119.362,83.577,119.2,87.75,119.2,89.685ZM67.709,85.167C67.523,87,65.5,90.937,63.3,95.853a18.577,18.577,0,0,0-.939-3.3c.264-4.6.486-9.15.593-13.583C64.3,82.063,66.071,84.247,67.709,85.167Z" transform="matrix(0.999, 0.035, -0.035, 0.999, -7.448, 8.466)"/><g transform="translate(4.131 8.261)"><g transform="translate(0 21.035)"><g transform="translate(19.095 79.829)"><path class="f" d="M89.637,199.881c.9,2.461,13.675,28.56,13.173,39.6-.579,12.708-16.078,6.57-19.374-7.864a163.343,163.343,0,0,1-3.557-29.273S87.333,193.583,89.637,199.881Z" transform="translate(-52.527 -38.213)"/><path class="g" d="M90.537,199.258A183.039,183.039,0,0,0,96.7,220.212c1.938,5.056,5.345,13.3-.828,14.716s-10.184-1.255-12.515-18.2c-1.819-13.232-3.474-15.009-3.474-15.009Z" transform="translate(-52.527 -37.591)"/><path class="h" d="M95.964,82.15l-32.086-.366s-4.953,2.593-3.659,16.5,5.513,19.57,5.513,19.57,2.326,42.966,9.241,59.369c2.517,5.971.853,20.289,1.614,29.946,1.329,16.872,11.36,42.237,11.36,42.237l10.065-5.949L96,183.727l6.6-82.762Z" transform="translate(-60.003 -81.784)"/><path class="i" d="M97.985,105.611l-4.462,46.9-.588-49.1q-.884.155-1.935.322c-15.263,2.421-22.08-4.025-17.18-1.969,4.987,2.093,21.888.886,18.576.639s-10.126-.882-12.822-3.361c4.419,1.638,9.833.961,12,1.416a10.161,10.161,0,0,1-2.027-7.928l.793-4.713,1.378.007,4.665,13.242h0l.534,1.512h0Z" transform="translate(-55.395 -79.516)"/><path class="j" d="M80.034,205.859c-.9,2.461-13.677,28.559-13.173,39.6.578,12.709,16.078,6.571,19.373-7.864a163.319,163.319,0,0,0,3.557-29.272S82.336,199.561,80.034,205.859Z" transform="translate(-57.429 -35.964)"/><path class="g" d="M78.2,205.236a183.269,183.269,0,0,1-6.16,20.953c-1.936,5.058-5.345,13.305.828,14.717s10.185-1.255,12.515-18.2C87.2,209.473,88.854,207.7,88.854,207.7Z" transform="translate(-56.492 -35.342)"/><path class="k" d="M90.326,82.05l-.791,4.713a10.173,10.173,0,0,0,3.37,9.373v.711l-3.423,81.776L82.9,203.378l-7.912,48.43h0a14.848,14.848,0,0,0,11.471,2.757l.266-.047c6.017-12.566,12.9-28.417,19.424-44,4.716-11.267,1.923-24.261,3.714-30.088,7.034-22.879,16.2-63.195,17.152-69.992,2.539-18.089,1.81-20.4-1.251-28.205Z" transform="translate(-54.365 -81.684)"/><path class="h" d="M90.942,101.263c-1.116-.176-2.068-.341-2.905-.5l-.029-2.349a62.36,62.36,0,0,0,12.482-3.409c7.5-2.779-5.838,4.486-9.15,4.734s13.905.378,18.012-2.995S106.207,103.684,90.942,101.263Z" transform="translate(-49.468 -77.047)"/></g><path class="l" d="M137.266,117.457c-7.493,4.7-18.6,4.361-39.717,3.793s-33.721-4.769-37.9-1.328C57.762,106.69,71.257,89.874,71.8,85.421c-3.818-1.792-8.249-8.344-8.381-17.147-.272-18.127-10.28-25.764-6.288-28.037C90.441,21.271,84.653,34.67,102.56,23.777,119.5,33.119,120.424,26.711,142.844,38c4.664,2.348-2.393,14.723-7.214,35.269-.809,3.446-1.373,8.808-9,13.139C129.488,100.845,137.555,100.666,137.266,117.457Z" transform="translate(-42.343 -23.777)"/><path class="i" d="M130.129,81.3c-25.2,21.847-62.66-9.731-63.1,9.437,0,0,38.437,2.861,53.917,2,4.508-.25,8.283-2.847,11.268-6.223A23.952,23.952,0,0,0,130.129,81.3Z" transform="translate(-38.265 -2.138)"/><path class="m" d="M118.554,40.453c0,10.864-15.609,36.754-24.861,36.754S67.808,49.738,67.808,38.874,84.715,27.4,95.578,27.4,118.554,29.589,118.554,40.453Z" transform="translate(-37.972 -22.415)"/><path class="f" d="M117.973,40.453c0,10.864-16.082,34.287-25.334,34.287S69.352,49.412,69.352,38.548,84.134,27.4,95,27.4,117.973,29.589,117.973,40.453Z" transform="translate(-37.391 -22.415)"/><path class="n" d="M142.788,78.092c-.325,6.973-3.088,13.631-8.448,16.991-7.056,4.423-13.783,6.028-33.663,5.492s-31.165-2.049-35.1,1.192c-3.429,2.82-8.982-14.15-9.428-25.618-.01.226-.012.461-.017.694-.017-.728-.012-1.433.017-2.1.446,11.468,6,28.438,9.428,25.618,3.939-3.241,15.223-1.728,35.1-1.192s26.607-1.069,33.663-5.492c5.36-3.359,8.124-10.017,8.448-16.991.03.684.029,1.367.012,2.051C142.8,78.519,142.8,78.306,142.788,78.092Z" transform="translate(-42.37 -4.605)"/><g transform="translate(0 95.047)"><path class="o" d="M139.418,92.842a2.17,2.17,0,0,1,2.172,2.17l-.015,45.249a2.378,2.378,0,0,1-2.379,2.377H58.236a2.377,2.377,0,0,1-2.378-2.377l.015-45.248a2.172,2.172,0,0,1,2.173-2.172Z" transform="translate(-42.468 -92.842)"/><path class="p" d="M139.2,93.417a1.381,1.381,0,0,1,1.379,1.38l-.015,45.248a1.588,1.588,0,0,1-1.587,1.584H58.019a1.588,1.588,0,0,1-1.585-1.585L56.449,94.8a1.382,1.382,0,0,1,1.38-1.38Z" transform="translate(-42.251 -92.626)"/><path class="q" d="M56.635,129.067a2.367,2.367,0,0,0,1.309.392H138.9a2.37,2.37,0,0,0,1.309-.392,2.728,2.728,0,0,0-2.185-1.192H58.82A2.728,2.728,0,0,0,56.635,129.067Z" transform="translate(-42.175 -79.663)"/><path class="r" d="M66.84,127.184h57.613a.792.792,0,0,1,.793.793v1.742h-59.2v-1.742A.793.793,0,0,1,66.84,127.184Z" transform="translate(-38.635 -79.923)"/><g transform="translate(18.638 17.077)"><path class="s" d="M.4,0H4.2a.4.4,0,0,1,.4.4V3.984a.4.4,0,0,1-.4.4H.4a.4.4,0,0,1-.4-.4V.4A.4.4,0,0,1,.4,0Z" transform="translate(34.63 20.299)"/><path class="s" d="M.4,0H4.2a.4.4,0,0,1,.4.4V3.984a.4.4,0,0,1-.4.4H.4a.4.4,0,0,1-.4-.4V.4A.4.4,0,0,1,.4,0Z" transform="translate(45.057 20.299)"/><path class="s" d="M.4,0H4.2a.4.4,0,0,1,.4.4V3.984a.4.4,0,0,1-.4.4H.4a.4.4,0,0,1-.4-.4V.4A.4.4,0,0,1,.4,0Z" transform="translate(39.843 20.299)"/><path class="s" d="M.4,0H4.2a.4.4,0,0,1,.4.4V3.984a.4.4,0,0,1-.4.4H.4a.4.4,0,0,1-.4-.4V.4A.4.4,0,0,1,.4,0Z" transform="translate(55.484 20.299)"/><path class="s" d="M.4,0H4.2a.4.4,0,0,1,.4.4V3.984a.4.4,0,0,1-.4.4H.4a.4.4,0,0,1-.4-.4V.4A.4.4,0,0,1,.4,0Z" transform="translate(50.27 20.299)"/><path class="s" d="M.4,0H4.2a.4.4,0,0,1,.4.4V3.983a.4.4,0,0,1-.4.4H.4a.4.4,0,0,1-.4-.4V.4A.4.4,0,0,1,.4,0Z" transform="translate(29.416 20.299)"/><path class="s" d="M.4,0H4.2a.4.4,0,0,1,.4.4V3.984a.4.4,0,0,1-.4.4H.4a.4.4,0,0,1-.4-.4V.4A.4.4,0,0,1,.4,0Z" transform="translate(18.99 20.299)"/><path class="s" d="M.4,0H4.2a.4.4,0,0,1,.4.4V3.983a.4.4,0,0,1-.4.4H.4a.4.4,0,0,1-.4-.4V.4A.4.4,0,0,1,.4,0Z" transform="translate(13.776 20.299)"/><path class="s" d="M.4,0H4.2a.4.4,0,0,1,.4.4V3.984a.4.4,0,0,1-.4.4H.4a.4.4,0,0,1-.4-.4V.4A.4.4,0,0,1,.4,0Z" transform="translate(24.203 20.299)"/><path class="s" d="M.4,0H4.2a.4.4,0,0,1,.4.4V3.984a.4.4,0,0,1-.4.4H.4a.4.4,0,0,1-.4-.4V.4A.4.4,0,0,1,.4,0Z" transform="translate(33.549 5.315)"/><path class="s" d="M.4,0H4.2a.4.4,0,0,1,.4.4V3.984a.4.4,0,0,1-.4.4H.4a.4.4,0,0,1-.4-.4V.4A.4.4,0,0,1,.4,0Z" transform="translate(43.976 5.315)"/><path class="s" d="M.4,0H4.2a.4.4,0,0,1,.4.4V3.984a.4.4,0,0,1-.4.4H.4a.4.4,0,0,1-.4-.4V.4A.4.4,0,0,1,.4,0Z" transform="translate(38.762 5.315)"/><path class="s" d="M.4,0H4.2a.4.4,0,0,1,.4.4V3.984a.4.4,0,0,1-.4.4H.4a.4.4,0,0,1-.4-.4V.4A.4.4,0,0,1,.4,0Z" transform="translate(49.189 5.315)"/><path class="s" d="M.4,0H4.2a.4.4,0,0,1,.4.4V3.984a.4.4,0,0,1-.4.4H.4a.4.4,0,0,1-.4-.4V.4A.4.4,0,0,1,.4,0Z" transform="translate(28.335 5.315)"/><path class="s" d="M.4,0H4.2a.4.4,0,0,1,.4.4V3.984a.4.4,0,0,1-.4.4H.4a.4.4,0,0,1-.4-.4V.4A.4.4,0,0,1,.4,0Z" transform="translate(12.149 15.304)"/><path class="s" d="M.4,0H4.2a.4.4,0,0,1,.4.4V3.983a.4.4,0,0,1-.4.4H.4a.4.4,0,0,1-.4-.4V.4A.4.4,0,0,1,.4,0Z" transform="translate(61.569 10.309)"/><path class="s" d="M.4,0H4.2a.4.4,0,0,1,.4.4V3.984a.4.4,0,0,1-.4.4H.4a.4.4,0,0,1-.4-.4V.4A.4.4,0,0,1,.4,0Z" transform="translate(60.697 20.299)"/><path class="s" d="M.4,0H4.2a.4.4,0,0,1,.4.4V3.984a.4.4,0,0,1-.4.4H.4a.4.4,0,0,1-.4-.4V.4A.4.4,0,0,1,.4,0Z" transform="translate(64.283 15.304)"/><path class="s" d="M.4,0H4.2a.4.4,0,0,1,.4.4V3.984a.4.4,0,0,1-.4.4H.4a.4.4,0,0,1-.4-.4V.4A.4.4,0,0,1,.4,0Z" transform="translate(59.616 5.315)"/><path class="s" d="M.4,0H4.2a.4.4,0,0,1,.4.4V3.984a.4.4,0,0,1-.4.4H.4a.4.4,0,0,1-.4-.4V.4A.4.4,0,0,1,.4,0Z" transform="translate(54.402 5.315)"/><path class="s" d="M.4,0H4.2a.4.4,0,0,1,.4.4V3.983a.4.4,0,0,1-.4.4H.4a.4.4,0,0,1-.4-.4V.4A.4.4,0,0,1,.4,0Z" transform="translate(56.356 10.309)"/><path class="s" d="M.4,0H4.2a.4.4,0,0,1,.4.4V3.984a.4.4,0,0,1-.4.4H.4a.4.4,0,0,1-.4-.4V.4A.4.4,0,0,1,.4,0Z" transform="translate(38.216 15.304)"/><path class="s" d="M.4,0H4.2a.4.4,0,0,1,.4.4V3.984a.4.4,0,0,1-.4.4H.4a.4.4,0,0,1-.4-.4V.4A.4.4,0,0,1,.4,0Z" transform="translate(33.002 15.304)"/><path class="s" d="M.4,0H4.2a.4.4,0,0,1,.4.4V3.984a.4.4,0,0,1-.4.4H.4a.4.4,0,0,1-.4-.4V.4A.4.4,0,0,1,.4,0Z" transform="translate(43.429 15.304)"/><path class="s" d="M.4,0H4.2a.4.4,0,0,1,.4.4V3.984a.4.4,0,0,1-.4.4H.4a.4.4,0,0,1-.4-.4V.4A.4.4,0,0,1,.4,0Z" transform="translate(27.789 15.304)"/><path class="s" d="M.4,0H4.2a.4.4,0,0,1,.4.4V3.984a.4.4,0,0,1-.4.4H.4a.4.4,0,0,1-.4-.4V.4A.4.4,0,0,1,.4,0Z" transform="translate(48.643 15.304)"/><path class="s" d="M.4,0H4.2a.4.4,0,0,1,.4.4V3.984a.4.4,0,0,1-.4.4H.4a.4.4,0,0,1-.4-.4V.4A.4.4,0,0,1,.4,0Z" transform="translate(17.362 15.304)"/><path class="s" d="M.4,0H4.2a.4.4,0,0,1,.4.4V3.984a.4.4,0,0,1-.4.4H.4a.4.4,0,0,1-.4-.4V.4A.4.4,0,0,1,.4,0Z" transform="translate(53.856 15.304)"/><path class="s" d="M.4,0h3a.4.4,0,0,1,.4.4V2.336a.4.4,0,0,1-.4.4H.4a.4.4,0,0,1-.4-.4V.4A.4.4,0,0,1,.4,0Z" transform="translate(4.664 25.294)"/><path class="s" d="M.4,0h3a.4.4,0,0,1,.4.4V2.336a.4.4,0,0,1-.4.4H.4a.4.4,0,0,1-.4-.4V.4A.4.4,0,0,1,.4,0Z" transform="translate(9.095 25.294)"/><path class="s" d="M.4,0H4.2a.4.4,0,0,1,.4.4V3.984a.4.4,0,0,1-.4.4H.4a.4.4,0,0,1-.4-.4V.4A.4.4,0,0,1,.4,0Z" transform="translate(22.575 15.304)"/><path class="s" d="M.4,0H4.2a.4.4,0,0,1,.4.4V3.984a.4.4,0,0,1-.4.4H.4a.4.4,0,0,1-.4-.4V.4A.4.4,0,0,1,.4,0Z" transform="translate(51.142 10.309)"/><path class="s" d="M.4,0H4.2a.4.4,0,0,1,.4.4V3.984a.4.4,0,0,1-.4.4H.4a.4.4,0,0,1-.4-.4V.4A.4.4,0,0,1,.4,0Z" transform="translate(25.075 10.309)"/><path class="s" d="M.4,0H4.2a.4.4,0,0,1,.4.4V3.984a.4.4,0,0,1-.4.4H.4a.4.4,0,0,1-.4-.4V.4A.4.4,0,0,1,.4,0Z" transform="translate(30.289 10.309)"/><path class="s" d="M.4,0H4.2a.4.4,0,0,1,.4.4V3.984a.4.4,0,0,1-.4.4H.4a.4.4,0,0,1-.4-.4V.4A.4.4,0,0,1,.4,0Z" transform="translate(19.862 10.309)"/><path class="s" d="M.4,0H4.2a.4.4,0,0,1,.4.4V3.984a.4.4,0,0,1-.4.4H.4a.4.4,0,0,1-.4-.4V.4A.4.4,0,0,1,.4,0Z" transform="translate(35.502 10.309)"/><path class="s" d="M.4,0H4.2a.4.4,0,0,1,.4.4V3.984a.4.4,0,0,1-.4.4H.4a.4.4,0,0,1-.4-.4V.4A.4.4,0,0,1,.4,0Z" transform="translate(14.649 10.309)"/><path class="s" d="M.4,0H4.2a.4.4,0,0,1,.4.4V3.984a.4.4,0,0,1-.4.4H.4a.4.4,0,0,1-.4-.4V.4A.4.4,0,0,1,.4,0Z" transform="translate(40.716 10.309)"/><path class="s" d="M.4,0H4.2a.4.4,0,0,1,.4.4V3.984a.4.4,0,0,1-.4.4H.4a.4.4,0,0,1-.4-.4V.4A.4.4,0,0,1,.4,0Z" transform="translate(59.069 15.304)"/><path class="s" d="M.4,0H4.2a.4.4,0,0,1,.4.4V3.984a.4.4,0,0,1-.4.4H.4a.4.4,0,0,1-.4-.4V.4A.4.4,0,0,1,.4,0Z" transform="translate(23.122 5.315)"/><path class="s" d="M.4,0H4.2a.4.4,0,0,1,.4.4V3.984a.4.4,0,0,1-.4.4H.4a.4.4,0,0,1-.4-.4V.4A.4.4,0,0,1,.4,0Z" transform="translate(45.929 10.309)"/><path class="s" d="M.4,0H5.288a.4.4,0,0,1,.4.4v1.4a.4.4,0,0,1-.4.4H.4a.4.4,0,0,1-.4-.4V.4A.4.4,0,0,1,.4,0Z" transform="translate(11.937)"/><path class="s" d="M.4,0H4.2a.4.4,0,0,1,.4.4V3.984a.4.4,0,0,1-.4.4H.4a.4.4,0,0,1-.4-.4V.4A.4.4,0,0,1,.4,0Z" transform="translate(17.909 5.315)"/><path class="s" d="M.4,0H25.056a.4.4,0,0,1,.4.4V4.3a.4.4,0,0,1-.4.4H.4A.4.4,0,0,1,0,4.3V.4A.4.4,0,0,1,.4,0Z" transform="translate(28.663)"/><path class="s" d="M.4,0H4.2a.4.4,0,0,1,.4.4V4.3a.4.4,0,0,1-.4.4H.4A.4.4,0,0,1,0,4.3V.4A.4.4,0,0,1,.4,0Z" transform="translate(23.449)"/><path class="s" d="M.4,0H4.2a.4.4,0,0,1,.4.4V4.3a.4.4,0,0,1-.4.4H.4A.4.4,0,0,1,0,4.3V.4A.4.4,0,0,1,.4,0Z" transform="translate(18.236)"/><path class="s" d="M.4,0H5.288a.4.4,0,0,1,.4.4v1.4a.4.4,0,0,1-.4.4H.4a.4.4,0,0,1-.4-.4V.4A.4.4,0,0,1,.4,0Z" transform="translate(5.638)"/><path class="s" d="M.4,0H5.288a.4.4,0,0,1,.4.4V1.5a.4.4,0,0,1-.4.4H.4A.4.4,0,0,1,0,1.5V.4A.4.4,0,0,1,.4,0Z" transform="translate(5.637 2.804)"/><path class="s" d="M.4,0H4.2a.4.4,0,0,1,.4.4V4.3a.4.4,0,0,1-.4.4H.4A.4.4,0,0,1,0,4.3V.4A.4.4,0,0,1,.4,0Z" transform="translate(59.943)"/><path class="s" d="M117.181,109.113h-9.854a.547.547,0,0,0-.548.546v3.288a.547.547,0,0,0,.546.546h9.307a.547.547,0,0,0,.548-.546v-3.834Z" transform="translate(-41.949 -103.798)"/><path class="s" d="M116.645,112.742h-7.9a.547.547,0,0,0-.548.546v3.288a.547.547,0,0,0,.548.548H116.1a.547.547,0,0,0,.548-.548v-3.834Z" transform="translate(-41.415 -102.433)"/><path class="s" d="M.4,0H4.2a.4.4,0,0,1,.4.4V4.3a.4.4,0,0,1-.4.4H.4A.4.4,0,0,1,0,4.3V.4A.4.4,0,0,1,.4,0Z" transform="translate(65.157)"/><path class="s" d="M.4,0H4.464a.4.4,0,0,1,.4.4V4.3a.4.4,0,0,1-.4.4H.4A.4.4,0,0,1,0,4.3V.4A.4.4,0,0,1,.4,0Z" transform="translate(70.37)"/><path class="s" d="M.4,0H3.628a.4.4,0,0,1,.4.4V2.336a.4.4,0,0,1-.4.4H.4a.4.4,0,0,1-.4-.4V.4A.4.4,0,0,1,.4,0Z" transform="translate(0 25.294)"/><path class="s" d="M115.9,116.371h-5.183a.547.547,0,0,0-.548.548v3.286a.547.547,0,0,0,.548.548h4.636a.547.547,0,0,0,.546-.548v-3.834Z" transform="translate(-40.674 -101.067)"/><path class="s" d="M.4,0H3.692a.4.4,0,0,1,.4.4V2.336a.4.4,0,0,1-.4.4H.4a.4.4,0,0,1-.4-.4V.4A.4.4,0,0,1,.4,0Z" transform="translate(71.135 25.293)"/><path class="s" d="M.4,0H4.618a.4.4,0,0,1,.4.4v1.4a.4.4,0,0,1-.4.4H.4a.4.4,0,0,1-.4-.4V.4A.4.4,0,0,1,.4,0Z" transform="translate(0.009)"/><path class="s" d="M59.671,124.381h7.4a.548.548,0,0,0,.548-.546v-3.288a.547.547,0,0,0-.548-.546H60.22a.547.547,0,0,0-.548.546v3.834Z" transform="translate(-59.671 -99.702)"/><path class="s" d="M71.2,113.493a.547.547,0,0,0,.546-.546v-3.288a.546.546,0,0,0-.546-.546H60.224a.547.547,0,0,0-.548.546V113a.5.5,0,0,0,.5.5Z" transform="translate(-59.669 -103.798)"/><path class="s" d="M59.674,117.122h8.27a.546.546,0,0,0,.546-.546v-3.288a.545.545,0,0,0-.546-.546H60.222a.547.547,0,0,0-.546.546v3.834Z" transform="translate(-59.67 -102.433)"/><path class="s" d="M59.673,120.753h5.77a.547.547,0,0,0,.548-.546v-3.288a.547.547,0,0,0-.546-.548H60.221a.549.549,0,0,0-.548.548v3.834Z" transform="translate(-59.67 -101.067)"/><path class="s" d="M.4,0H4.2a.4.4,0,0,1,.4.4V4.3a.4.4,0,0,1-.4.4H.4A.4.4,0,0,1,0,4.3V.4A.4.4,0,0,1,.4,0Z" transform="translate(54.73)"/><rect class="s" width="4.6" height="4.381" rx="0.397" transform="translate(8.563 20.299)"/><path class="s" d="M.4,0h3a.4.4,0,0,1,.4.4V2.336a.4.4,0,0,1-.4.4H.4a.4.4,0,0,1-.4-.4V.4A.4.4,0,0,1,.4,0Z" transform="translate(17.958 25.294)"/><path class="s" d="M.4,0h3a.4.4,0,0,1,.4.4V2.336a.4.4,0,0,1-.4.4H.4a.4.4,0,0,1-.4-.4V.4A.4.4,0,0,1,.4,0Z" transform="translate(31.252 25.293)"/><path class="s" d="M.4,0h3a.4.4,0,0,1,.4.4V2.336a.4.4,0,0,1-.4.4H.4a.4.4,0,0,1-.4-.4V.4A.4.4,0,0,1,.4,0Z" transform="translate(26.82 25.293)"/><path class="s" d="M.4,0h3a.4.4,0,0,1,.4.4V2.336a.4.4,0,0,1-.4.4H.4a.4.4,0,0,1-.4-.4V.4A.4.4,0,0,1,.4,0Z" transform="translate(22.389 25.293)"/><rect class="s" width="3.794" height="2.734" rx="0.397" transform="translate(13.526 25.293)"/><path class="s" d="M.4,0H4.2a.4.4,0,0,1,.4.4V3.983a.4.4,0,0,1-.4.4H.4a.4.4,0,0,1-.4-.4V.4A.4.4,0,0,1,.4,0Z" transform="translate(12.695 5.315)"/><path class="s" d="M.4,0H4.2a.4.4,0,0,1,.4.4V3.984a.4.4,0,0,1-.4.4H.4a.4.4,0,0,1-.4-.4V.4A.4.4,0,0,1,.4,0Z" transform="translate(6.935 15.304)"/><path class="s" d="M.4,0H4.2a.4.4,0,0,1,.4.4V3.984a.4.4,0,0,1-.4.4H.4a.4.4,0,0,1-.4-.4V.4A.4.4,0,0,1,.4,0Z" transform="translate(9.435 10.309)"/><path class="s" d="M.4,0h3a.4.4,0,0,1,.4.4V2.336a.4.4,0,0,1-.4.4H.4a.4.4,0,0,1-.4-.4V.4A.4.4,0,0,1,.4,0Z" transform="translate(35.683 25.293)"/><path class="s" d="M.4,0h3a.4.4,0,0,1,.4.4V2.336a.4.4,0,0,1-.4.4H.4a.4.4,0,0,1-.4-.4V.4A.4.4,0,0,1,.4,0Z" transform="translate(62.272 25.293)"/><path class="s" d="M.4,0h3a.4.4,0,0,1,.4.4V2.336a.4.4,0,0,1-.4.4H.4a.4.4,0,0,1-.4-.4V.4A.4.4,0,0,1,.4,0Z" transform="translate(66.703 25.293)"/><path class="s" d="M.4,0h3a.4.4,0,0,1,.4.4V2.336a.4.4,0,0,1-.4.4H.4a.4.4,0,0,1-.4-.4V.4A.4.4,0,0,1,.4,0Z" transform="translate(57.84 25.293)"/><path class="s" d="M.4,0H4.2a.4.4,0,0,1,.4.4V3.984a.4.4,0,0,1-.4.4H.4a.4.4,0,0,1-.4-.4V.4A.4.4,0,0,1,.4,0Z" transform="translate(65.91 20.299)"/><path class="s" d="M.4,0h3a.4.4,0,0,1,.4.4V2.336a.4.4,0,0,1-.4.4H.4a.4.4,0,0,1-.4-.4V.4A.4.4,0,0,1,.4,0Z" transform="translate(40.115 25.293)"/><path class="s" d="M115.454,120H111.9a.546.546,0,0,0-.548.546v3.288a.547.547,0,0,0,.546.546h3.008a.547.547,0,0,0,.546-.546Z" transform="translate(-40.229 -99.702)"/><path class="s" d="M.4,0h3a.4.4,0,0,1,.4.4V2.336a.4.4,0,0,1-.4.4H.4a.4.4,0,0,1-.4-.4V.4A.4.4,0,0,1,.4,0Z" transform="translate(53.409 25.293)"/><path class="s" d="M.4,0h3a.4.4,0,0,1,.4.4V2.336a.4.4,0,0,1-.4.4H.4a.4.4,0,0,1-.4-.4V.4A.4.4,0,0,1,.4,0Z" transform="translate(44.546 25.293)"/><path class="s" d="M.4,0h3a.4.4,0,0,1,.4.4V2.336a.4.4,0,0,1-.4.4H.4a.4.4,0,0,1-.4-.4V.4A.4.4,0,0,1,.4,0Z" transform="translate(48.978 25.293)"/></g><path class="t" d="M.631,0H18.974a.631.631,0,0,1,.631.631V9.358a.632.632,0,0,1-.632.632H.631A.631.631,0,0,1,0,9.358V.631A.631.631,0,0,1,.631,0Z" transform="translate(46.459 3.527)"/><path class="u" d="M99.492,98.59V96.273a.869.869,0,0,0-.868-.868H80.757a.869.869,0,0,0-.868.868V98.59Z" transform="translate(-33.428 -91.878)"/><g transform="translate(0 49.005)"><path class="s" d="M48.3,140.14H156.422a2.172,2.172,0,0,0,2.173-2.172v-.625H46.128v.625A2.171,2.171,0,0,0,48.3,140.14Z" transform="translate(-46.128 -125.105)"/><path class="v" d="M156.422,142.861a2.173,2.173,0,0,0,2.173-2.172L145.564,130.8a2.813,2.813,0,0,0-2.708-2.353H61.9a2.818,2.818,0,0,0-2.711,2.353l-13.057,9.885a2.171,2.171,0,0,0,2.172,2.172Z" transform="translate(-46.128 -128.451)"/><path class="b" d="M137.889,129.337l11.985,9.424-.007.032a.481.481,0,0,1-.469.381H51.581a.484.484,0,0,1-.469-.383l-.007-.032,12.011-9.424Z" transform="translate(-44.256 -128.118)"/><path class="j" d="M137.658,129.481l11.961,9.218a.281.281,0,0,1-.275.223H51.526a.282.282,0,0,1-.275-.223l11.988-9.218Z" transform="translate(-44.201 -128.064)"/></g></g><g transform="translate(15.883 88.597)"><path class="g" d="M57.669,91.762l5.854,14.855a3.451,3.451,0,0,1,.146,1.676h0a3.446,3.446,0,0,0,.639,2.606h0l-.355,9.273-.8,7.049.2,4.208a.428.428,0,0,0,.384.406h0a1.389,1.389,0,0,0,1.511-1.152l1.255-7.514.138,8.052,1.424,5.557a.592.592,0,0,0,.574.446,1.414,1.414,0,0,0,.878-.31l.394-.315.539,2.674a.756.756,0,0,0,.86.545h0a1.987,1.987,0,0,0,1.639-2.095L72.42,130.1l.319-5.878.911-.186.208,6.935a2.088,2.088,0,0,0,.077.5l1.59,5.607a.811.811,0,0,0,1.056.542h0a1.728,1.728,0,0,0,1.133-1.825l-.607-5.242.04-7.6s-.107-2.257-.028-3.763a.4.4,0,0,1,.754-.171c.669,1.285,1.423,3.15,1.423,3.15.089,1.023.643,3.886,1.5,4.452a3.516,3.516,0,0,0,.545.295h0a.859.859,0,0,0,1.2-.783l.029-3.551a3.831,3.831,0,0,0-.062-.709l-1.481-8.018a3.723,3.723,0,0,0-.72-1.609c-1.262-1.625-4.361-5.609-6.044-7.685-2.148-2.649-6.008-16.4-6.008-16.4Z" transform="translate(-57.669 -88.155)"/><path class="w" d="M65.861,121.541l1.06,5.384-.271.219c-.326-1.054-1.042-5.514-1.042-5.514v-7.752a.661.661,0,0,1,.505.665Z" transform="translate(-54.682 -78.478)"/><path class="w" d="M72.072,100.717a15.431,15.431,0,0,0-4.785,3.723,2.925,2.925,0,0,1-1.639,1.283,2.879,2.879,0,0,1-3.051-.176c.007-.062,0-.125.011-.187h0a3.452,3.452,0,0,0-.146-1.676l-1.973-5.007c.006-.008,0-.019.01-.028.347-.523,1.362-1.6,4.327-1.135,2.506.395,4.474-1.145,5.441-1.5h0a1.008,1.008,0,0,1,.332-.055,40.116,40.116,0,0,0,1.869,4.481A.9.9,0,0,1,72.072,100.717Z" transform="translate(-56.608 -85.219)"/><g transform="translate(4.062 11.595)"><path class="j" d="M65.686,104.347a17.862,17.862,0,0,1,5.693-4.408c.336-.246-.912-3.592-1.321-3.346a11.576,11.576,0,0,1-6.9,1.563C65.115,102.232,64.923,105.368,65.686,104.347Z" transform="translate(-59.665 -96.581)"/><path class="t" d="M61.773,98.147a1.868,1.868,0,0,1-.907.292.187.187,0,0,0-.16.238l1.616,5.618Z" transform="translate(-60.592 -95.991)"/><path class="o" d="M61.288,102.381c-.724-1.98-.106-4.027,1.38-4.57s3.278.622,4,2.6.106,4.027-1.38,4.57S62.012,104.361,61.288,102.381Z" transform="translate(-60.484 -96.168)"/><path class="o" d="M60.924,102.534c-.724-1.98-.106-4.025,1.38-4.569s3.278.622,4,2.6.1,4.027-1.382,4.57S61.646,104.516,60.924,102.534Z" transform="translate(-60.621 -96.11)"/><path class="j" d="M61.041,102.41c-.678-1.856-.1-3.775,1.294-4.284s3.073.584,3.752,2.44.1,3.774-1.294,4.283S61.719,104.265,61.041,102.41Z" transform="translate(-60.57 -96.046)"/><path class="o" d="M61.377,102c-.513-1.4-.076-2.85.977-3.235s2.322.44,2.834,1.843.076,2.851-.977,3.235S61.889,103.4,61.377,102Z" transform="translate(-60.417 -95.796)"/><path class="x" d="M61.694,101.44l1.264-.529.5-.967" transform="translate(-60.217 -95.315)"/><path class="y" d="M61.04,102.035a4.246,4.246,0,0,1-.129-2.648c.839-2.095,2.221,5.011,5.225,3.681a2.332,2.332,0,0,1-1.345,1.405C63.4,104.983,61.719,103.89,61.04,102.035Z" transform="translate(-60.57 -95.671)"/></g><g transform="translate(23.603 35.879)"><path class="z" d="M76.083,116.318a.839.839,0,0,1-.172.5,1.326,1.326,0,0,1-.866-.544,1.249,1.249,0,0,1-.226-.72c0-.72.186-1.259.9-1.318.142-.012.257-.01.377-.01Z" transform="translate(-74.82 -114.226)"/><path class="z" d="M76.022,115.758a.839.839,0,0,1-.172.5,1.326,1.326,0,0,1-.866-.544A5.62,5.62,0,0,0,76.022,115.758Z" transform="translate(-74.758 -113.666)"/><path class="z" d="M75.32,114.3a.948.948,0,0,1,.216-.062c.142-.012.257-.01.377-.01l0,.306A.934.934,0,0,1,75.32,114.3Z" transform="translate(-74.632 -114.226)"/></g><g transform="translate(17.42 47.326)"><path class="z" d="M70.4,122.577c1.179-.187,1.514.447,1.514,1.087a1.137,1.137,0,0,1-.647,1,.822.822,0,0,1-.341-.228.773.773,0,0,1-.164-.3l-.436-1.539C70.355,122.594,70.372,122.583,70.4,122.577Z" transform="translate(-70.327 -122.544)"/><path class="z" d="M71.753,123.358a1.138,1.138,0,0,1-.647,1,.822.822,0,0,1-.341-.228C70.692,124.046,71.107,124.357,71.753,123.358Z" transform="translate(-70.165 -122.237)"/><path class="z" d="M70.447,123.017l-.12-.42c.028-.006.045-.017.074-.022a2.161,2.161,0,0,1,.505-.022.23.23,0,0,1,.012.044C70.919,122.808,70.714,122.976,70.447,123.017Z" transform="translate(-70.327 -122.542)"/></g><g transform="translate(12.449 49.401)"><path class="z" d="M67.164,124.052a1.3,1.3,0,0,1,1.3,1.3c0,.6-.418.842-.974.907a.793.793,0,0,1-.259-.176l-.023-.022a.7.7,0,0,1-.162-.289l-.329-1.628A1.291,1.291,0,0,1,67.164,124.052Z" transform="translate(-66.715 -124.052)"/><path class="z" d="M68.348,125c0,.6-.418.842-.974.907a.731.731,0,0,1-.355-.306A1.752,1.752,0,0,0,68.348,125Z" transform="translate(-66.601 -123.697)"/><path class="z" d="M67.164,124.052a1.272,1.272,0,0,1,.416.085c-.044.2-.343.362-.72.362-.026,0-.048-.007-.074-.008l-.07-.35A1.186,1.186,0,0,1,67.164,124.052Z" transform="translate(-66.715 -124.052)"/></g><g transform="translate(10.052 47.238)"><path class="z" d="M65.865,124.309a.59.59,0,0,1-.55-.442l-.341-1.327a1.077,1.077,0,0,1,.3-.061,1.119,1.119,0,0,1,1.119,1.12A.7.7,0,0,1,65.865,124.309Z" transform="translate(-64.973 -122.48)"/><path class="z" d="M65.733,124a.587.587,0,0,1-.411-.2,1.728,1.728,0,0,0,.936-.512A.7.7,0,0,1,65.733,124Z" transform="translate(-64.842 -122.174)"/><path class="z" d="M64.973,122.539a.968.968,0,0,1,.3-.059,1.07,1.07,0,0,1,.358.073c-.036.167-.271.295-.572.308Z" transform="translate(-64.973 -122.48)"/></g><g transform="translate(5.616 41.909)"><path class="z" d="M62.866,119.525c0,.468-.432.629-.983.652a.413.413,0,0,1-.069-.2l-.065-1.367A1.033,1.033,0,0,1,62.866,119.525Z" transform="translate(-61.75 -118.608)"/><path class="z" d="M62.849,119.274c0,.468-.432.629-.983.652a.413.413,0,0,1-.069-.2V119.7A1.767,1.767,0,0,0,62.849,119.274Z" transform="translate(-61.733 -118.357)"/><path class="z" d="M61.75,118.608a1.3,1.3,0,0,1,.355.058c-.026.1-.16.18-.343.223Z" transform="translate(-61.75 -118.608)"/></g></g><g transform="translate(7.328 14.224)"><path class="g" d="M125.224,87.412l-8.091,16.463-1.77,14.969s-.71,7.752-1.144,8.966c-.206.848-1.645.153-1.661-1.105-.011-.852.436-6.779-.289-7.865-.27,1.767-1.214,7.961-1.214,7.961l-2.476,6.169a.3.3,0,0,1-.164.167.3.3,0,0,1-.234,0,1.519,1.519,0,0,1-.881-1.027l-.1-.384-1.065,2.69a.58.58,0,0,1-.71.326h0a1.737,1.737,0,0,1-1.2-2.247l1.713-6.909-.051-6.512a.249.249,0,0,0-.217-.264.641.641,0,0,0-.709.531l-1.076,6.49-2.5,5.744a.64.64,0,0,1-.882.312h0a1.959,1.959,0,0,1-.995-2.224l1.256-4.934.98-7.542s-.066-2.011-.2-3.279a.72.72,0,0,0-.988-.6,6.545,6.545,0,0,0-2.395,2.454l-1.031,2.366a2.819,2.819,0,0,1-2.174,1.665h0a1.012,1.012,0,0,1-1.137-1.222l.89-3.987a3.956,3.956,0,0,1,.528-1.272l3.785-5.93a3.978,3.978,0,0,1,.939-1.023l4.913-3.747a9.228,9.228,0,0,0,2.894-3.72l6.353-14.874Z" transform="translate(-35.521 -15.336)"/><path class="w" d="M105.756,109.806a.532.532,0,0,1,.575-.509l-.552,7.528-2.119,5.838c-.006-.019-.017-.037-.022-.058l-.1-.384,1.913-5.474Z" transform="translate(-31.857 -5.83)"/><path class="aa" d="M107.158,107.408a.748.748,0,0,1-.285-.82c2.5-8.578,7.138-16.517,7.57-20.537,0-7.186,2.6-45.094,9.344-51.938,8.19,5.98,9.534,26.105,7.244,53.535-.308,3.687-3.167,10.862-11.787,23.269C116.191,113.584,110.233,109.6,107.158,107.408Z" transform="translate(-30.615 -34.113)"/><path class="aa" d="M72.152,111.012c.26-.186-3.454-20.186-4.982-22.7,1.452-21.052,2-41.231-8.26-52.572-8.937,2.4-7.419,46.3-7.27,49.96a74.385,74.385,0,0,0,9.7,30.737C65.876,116.81,69.077,113.2,72.152,111.012Z" transform="translate(-51.453 -33.502)"/><g transform="translate(65.105 114.749)"><path class="z" d="M99.881,117.494a1.045,1.045,0,0,1,.27.056l-.625,1.435a.634.634,0,0,1-.35.334.7.7,0,0,1-.416-.683A1.132,1.132,0,0,1,99.881,117.494Z" transform="translate(-98.761 -117.494)"/><path class="z" d="M99.448,118.783a.639.639,0,0,1-.271.224.7.7,0,0,1-.416-.683A2.04,2.04,0,0,0,99.448,118.783Z" transform="translate(-98.761 -117.181)"/><path class="z" d="M99.673,117.494a.941.941,0,0,1,.271.055l-.142.325c-.259-.033-.456-.153-.489-.306A1.079,1.079,0,0,1,99.673,117.494Z" transform="translate(-98.553 -117.494)"/></g><g transform="translate(58.284 101.598)"><path class="z" d="M94,110.39a1,1,0,0,1-.172-.809l.367-1.643c.021.006.043.006.065.012a1.381,1.381,0,0,1,.867,1.749A.935.935,0,0,1,94,110.39Z" transform="translate(-93.804 -107.938)"/><path class="z" d="M93.991,109.909a1.014,1.014,0,0,1-.162-.339,1.792,1.792,0,0,0,1.289-.352A.935.935,0,0,1,93.991,109.909Z" transform="translate(-93.795 -107.456)"/><path class="z" d="M94.338,108.51a1.134,1.134,0,0,1-.317-.157l.092-.414a.551.551,0,0,1,.066.011,1.269,1.269,0,0,1,.717.585A1.046,1.046,0,0,1,94.338,108.51Z" transform="translate(-93.723 -107.938)"/></g><g transform="translate(69.447 117.468)"><path class="z" d="M103.357,119.516a1.056,1.056,0,0,1,.29.157l-.559,1.412a.575.575,0,0,1-.323.307c-.577-.179-.985-.505-.808-1.1A1.132,1.132,0,0,1,103.357,119.516Z" transform="translate(-101.916 -119.47)"/><path class="z" d="M103.046,120.922a.565.565,0,0,1-.281.245c-.577-.179-.985-.505-.808-1.1C102.318,120.7,102.7,120.9,103.046,120.922Z" transform="translate(-101.916 -119.245)"/><path class="z" d="M103.063,119.512a.982.982,0,0,1,.29.156l-.12.3-.032-.006c-.312-.092-.519-.3-.5-.484A1.1,1.1,0,0,1,103.063,119.512Z" transform="translate(-101.621 -119.466)"/></g><g transform="translate(72.436 116.104)"><path class="z" d="M105.313,118.512l-.6,1.5c-.018.047-.065.073-.1.1a.689.689,0,0,1-.482-.89A.986.986,0,0,1,105.313,118.512Z" transform="translate(-104.088 -118.479)"/><path class="z" d="M104.755,119.7l-.044.109c-.018.047-.065.073-.1.1a.689.689,0,0,1-.482-.89A1.424,1.424,0,0,0,104.755,119.7Z" transform="translate(-104.088 -118.275)"/><path class="z" d="M104.946,118.789a.37.37,0,0,1-.183-.3.9.9,0,0,1,.3.022Z" transform="translate(-103.834 -118.477)"/></g><g transform="translate(77.847 111.29)"><path class="z" d="M109.118,115a8.133,8.133,0,0,1-.246,1.163.456.456,0,0,1-.2.285c-.348-.023-.607-.164-.647-.516a.9.9,0,0,1,.849-.95A.961.961,0,0,1,109.118,115Z" transform="translate(-108.02 -114.981)"/><path class="z" d="M108.67,116.189c-.348-.023-.607-.164-.647-.516a1.543,1.543,0,0,0,.812.3A.441.441,0,0,1,108.67,116.189Z" transform="translate(-108.018 -114.72)"/><path class="z" d="M108.967,115c-.015.088-.029.171-.044.252-.249.015-.454-.059-.5-.18a1.039,1.039,0,0,1,.3-.088A.917.917,0,0,1,108.967,115Z" transform="translate(-107.867 -114.981)"/></g></g><g transform="translate(16.739 146.164)"><path class="t" d="M67.963,132.009l-2.5,3.154h7.3l1.926-3.154Z" transform="translate(-55.592 -129.224)"/><path class="t" d="M67.891,132.009H61.4l-3.108,3.154h6.925Z" transform="translate(-58.291 -129.224)"/><path class="t" d="M67.458,132.051l1.752-2.066H63.1l-2.035,2.066Z" transform="translate(-57.248 -129.986)"/><path class="t" d="M67.694,132.051h6.595l1.261-2.066H69.33Z" transform="translate(-54.753 -129.986)"/></g><g transform="translate(55.39 146.164)"><path class="o" d="M94.774,131.92l.178.778h24.522l-.759-.778Z" transform="translate(-83.218 -129.258)"/><path class="o" d="M86.377,133.525h37.391l-.686-.7H86.38Z" transform="translate(-86.377 -128.919)"/><path class="o" d="M86.841,130.581h32.846l-.58-.6H86.837Z" transform="translate(-86.204 -129.986)"/></g><path class="t" d="M73.231,136.187h58.841l-1.251-1.284H73.833Z" transform="translate(-35.932 18.028)"/><path class="t" d="M75.217,131.934h50.428l-1.186-1.217H75.788Z" transform="translate(-35.185 16.453)"/><path class="o" d="M73.951,134.534h55.792l-.829-.851H74.35Z" transform="translate(-35.661 17.569)"/></g><path class="ab" d="M82.4,14.842c-11.87,0-14.328,22.91-9.781,33.154,4.215,9.5,14.806,11.537,18.6,13.3,0,0,9.836-8.663,17.3-.026-2.8,4.635-3.335,13.512-1.36,17.489,7.027,14.157.7,14.93,5.576,12.23,13.546-7.5,6.258-14.1,12.332-20.785,6.716-7.393,6.076-18.332,1.258-23.588-7.312-7.976.2-12.511-8.433-20.357a47.981,47.981,0,0,1-5.271-5.871C103.85,9.281,92.142,9.657,82.4,14.842Z" transform="translate(-36.967 -7.418)"/><path class="ac" d="M82.951,12.422c-11.871,0-14.917,26.4-10.37,36.648,4.23-3.308,8.648-14.562,10.37-21.078,0,0-.6,9.416,7.642,11.4,12.843,3.1,18.021,10.767,19.508,18.44-2.8,4.635-4.661,14.648-.391,19.6,10.321,11.97-1.881,17.326,2.995,14.626,13.546-7.5,4.429-19.722,10.5-26.406,6.717-7.392,7.906-12.711,3.088-17.966-7.312-7.976,4.265-11.966-4.369-19.812-1.95-1.771-4.321-3.414-5.272-5.871C109.87,4.465,92.695,7.237,82.951,12.422Z" transform="translate(-36.933 -8.492)"/><g transform="translate(38.616 34)"><path class="g" d="M105.087,45.577c-3.717-1.927-5.074-8.159-12.85-6.774-4.481.8-6.585-2.715-10.33-5.605-5.424,2.772-4.313,8.516-7.2,11.2-1.433,1.329.534,4.667.786,6.688.57,4.588,12.709,12.8,16.674,12.8,3.841,0,16.059-6.881,16.666-10.81A7.2,7.2,0,0,0,105.087,45.577Z" transform="translate(-74.188 -33.198)"/></g><path class="i" d="M75.343,71.095c18.4-6.222,19.894-3.224,29.156-1.382s4.195,1.906-11.494,2.776C77.524,73.349,75.343,71.095,75.343,71.095Z" transform="translate(-35.137 13.65)"/></g></g></g></svg>